<svg width="27" height="29" viewBox="0 0 27 29" fill="none" xmlns="http://www.w3.org/2000/svg">
<path d="M23.1356 14.7378C23.0528 14.483 22.7791 14.3436 22.5242 14.4263C22.2694 14.5091 22.1299 14.7829 22.2128 15.0377C22.509 15.9492 22.6593 16.9023 22.6593 17.8705C22.6593 22.9209 18.5504 27.0297 13.5001 27.0297C8.44977 27.0297 4.34087 22.9209 4.34087 17.8705C4.34087 14.2307 6.49633 10.9357 9.8322 9.47594C10.0088 9.39869 10.1229 9.22424 10.1229 9.03145V5.67986H14.0178C14.2858 5.67986 14.5029 5.46265 14.5029 5.1947C14.5029 4.92676 14.2858 4.70955 14.0178 4.70955H9.90171C9.1465 4.70955 8.53214 4.09514 8.53214 3.33998C8.53214 2.58488 9.14655 1.97037 9.90176 1.97037H17.0985C17.8537 1.97037 18.468 2.58477 18.468 3.33993C18.468 4.09503 17.8537 4.70949 17.0985 4.70949H15.6998C15.4318 4.70949 15.2146 4.92671 15.2146 5.19465C15.2146 5.46259 15.4318 5.67981 15.6998 5.67981H16.8772V9.03145C16.8772 9.22414 16.9914 9.39869 17.1679 9.47594C19.0156 10.2846 20.568 11.7056 21.5385 13.4772C21.6267 13.6382 21.793 13.7294 21.9645 13.7294C22.0433 13.7294 22.1232 13.7101 22.1971 13.6696C22.4322 13.5409 22.5182 13.246 22.3895 13.011C21.3677 11.1459 19.7627 9.6323 17.8476 8.71994V5.55609C18.7714 5.24296 19.4383 4.36814 19.4383 3.33988C19.4383 2.04968 18.3886 1 17.0985 1H9.90171C8.61145 1 7.56183 2.04968 7.56183 3.33988C7.56183 4.36814 8.22876 5.2429 9.15256 5.55609V8.71963C5.62938 10.3947 3.37061 13.9519 3.37061 17.8705C3.37061 23.4559 7.91462 28 13.5001 28C19.0856 28 23.6296 23.4559 23.6296 17.8705C23.6296 16.8003 23.4634 15.7463 23.1356 14.7378Z" fill="#3DF9F0"/>
<path d="M20.8056 16.2795C20.7568 16.0567 20.5594 15.898 20.3316 15.898C20.3305 15.898 20.3294 15.898 20.3283 15.898C16.9682 15.9205 15.1793 16.6305 13.5003 17.3432C11.8214 16.6306 10.0323 15.9204 6.67174 15.898C6.44435 15.8943 6.24343 16.0556 6.19455 16.2795C6.08069 16.8006 6.02295 17.3358 6.02295 17.8703C6.02295 19.3667 6.46534 20.8116 7.30239 22.0488C7.39621 22.1874 7.54903 22.2622 7.7047 22.2622C7.79825 22.2622 7.8928 22.2352 7.97613 22.1788C8.19808 22.0286 8.2563 21.727 8.10606 21.505C7.37812 20.429 6.99326 19.1721 6.99326 17.8703C6.99326 17.5371 7.01905 17.2036 7.0701 16.8745C10.0947 16.9484 11.6589 17.6139 13.3117 18.3174C14.9408 19.0107 16.622 19.726 19.7036 19.8303C19.3229 21.0293 18.5931 22.1085 17.6077 22.9131C16.451 23.8575 14.9923 24.3775 13.5004 24.3775C11.9465 24.3775 10.4411 23.8185 9.26163 22.8034C9.05845 22.6287 8.75206 22.6517 8.57735 22.8548C8.40254 23.0579 8.42553 23.3642 8.62861 23.539C9.98409 24.7055 11.7143 25.348 13.5004 25.348C15.2153 25.348 16.892 24.7503 18.2214 23.6648C19.5316 22.5951 20.4496 21.1021 20.8062 19.4614C20.9197 18.9425 20.9772 18.4073 20.9772 17.8705C20.9772 17.3358 20.9194 16.8006 20.8056 16.2795ZM19.9301 18.8658C17.5631 18.8082 16.0898 18.3879 14.7687 17.8703C16.0893 17.353 17.562 16.9323 19.93 16.8745C19.9811 17.2035 20.0068 17.5371 20.0068 17.8703C20.0068 18.2046 19.9808 18.5378 19.9301 18.8658Z" fill="#3DF9F0"/>
<path d="M10.5029 18.5935C9.50993 18.5935 8.70215 19.4013 8.70215 20.3942C8.70215 21.3872 9.50993 22.195 10.5029 22.195C11.4958 22.195 12.3036 21.3872 12.3036 20.3942C12.3036 19.4013 11.4958 18.5935 10.5029 18.5935ZM10.5029 21.2246C10.045 21.2246 9.67251 20.8521 9.67251 20.3942C9.67251 19.9363 10.045 19.5639 10.5029 19.5639C10.9608 19.5639 11.3333 19.9363 11.3333 20.3942C11.3333 20.8521 10.9607 21.2246 10.5029 21.2246Z" fill="#3DF9F0"/>
<path d="M15.1412 19.8015C14.3256 19.8015 13.6621 20.465 13.6621 21.2806C13.6621 22.0961 14.3256 22.7596 15.1412 22.7596C15.9566 22.7596 16.6201 22.0961 16.6201 21.2806C16.6201 20.465 15.9566 19.8015 15.1412 19.8015ZM15.1412 21.7893C14.8607 21.7893 14.6324 21.561 14.6324 21.2806C14.6324 21.0001 14.8607 20.7718 15.1412 20.7718C15.4216 20.7718 15.6498 21.0001 15.6498 21.2806C15.6498 21.561 15.4216 21.7893 15.1412 21.7893Z" fill="#3DF9F0"/>
</svg>
