<?xml version="1.0" encoding="iso-8859-1"?>
<!-- Uploaded to: SVG Repo, www.svgrepo.com, Generator: SVG Repo Mixer Tools -->
<svg fill="#000000" height="800px" width="800px" version="1.1" id="Layer_1" xmlns="http://www.w3.org/2000/svg" xmlns:xlink="http://www.w3.org/1999/xlink" 
	 viewBox="0 0 504.903 504.903" xml:space="preserve">
<g transform="translate(1 1)">
	<g>
		<g>
			<path d="M131.021,326.409c-12.8-4.267-30.72-8.533-44.373-22.187c-13.653-12.8-18.773-31.573-22.187-44.373
				c-0.853-4.267-5.973-6.827-10.24-5.973s-6.827,5.973-5.973,10.24c4.267,14.507,10.24,35.84,26.453,52.053
				c16.213,16.213,37.547,22.187,52.053,26.453c0.853,0,1.707,0,2.56,0c4.267,0,7.68-1.707,7.68-5.973
				C137.848,332.383,135.288,327.263,131.021,326.409z"/>
			<path d="M499.661,451.849l-84.48-84.48v-32.427c0-5.12-3.413-8.533-8.533-8.533h-32.427l-31.573-31.573v-32.427
				c0-5.12-3.413-8.533-8.533-8.533h-32.427l-27.733-27.733l6.4-6.4c3.413-3.413,3.413-8.533,0-11.947l-17.92-17.92l5.973-5.973
				c16.213-17.067,63.147-16.213,111.787,1.707c1.707,0.853,4.267,0.853,6.827-0.853c2.56-0.853,4.267-3.413,4.267-5.973
				c0.853-3.413,11.947-77.653-44.373-133.973c-56.32-56.32-130.56-45.227-133.973-44.373c-2.56,0-5.12,1.707-5.973,4.267
				c-1.707,1.707-1.707,4.267,0,6.827c19.627,54.613,23.04,102.4,7.68,117.76l-6.4,6.4l-18.347-18.347
				c-3.413-3.413-8.533-3.413-11.947,0l-15.36,15.36v-28.16c0-5.12-3.413-8.533-8.533-8.533h-48.64c-5.12,0-8.533,3.413-8.533,8.533
				v48.64c0,5.12,3.413,8.533,8.533,8.533h28.16l-16.213,16.213c-1.707,1.707-2.56,3.413-2.56,5.973s0.853,4.267,2.56,5.973
				l17.92,17.92l-5.973,5.973c-15.36,15.36-63.147,11.947-117.76-7.68c-1.707-0.853-4.267-0.853-6.827,0
				c-2.56,0.853-4.267,3.413-4.267,5.973c0,3.413-11.947,78.507,44.373,133.973c40.107,40.107,88.747,46.08,115.2,46.08
				c11.093,0,17.92-0.853,18.773-1.707c2.56-0.853,4.267-1.707,5.973-4.267c1.707-1.707,1.707-4.267,0.853-6.827
				c-17.067-48.64-17.92-95.573-1.707-111.787l5.547-5.547l18.347,18.347c1.707,1.707,3.413,2.56,5.973,2.56s5.12-0.853,5.973-2.56
				l6.4-6.4l27.733,27.733v32.427c0,5.12,3.413,8.533,8.533,8.533h32.427l31.573,31.573v32.427c0,5.12,3.413,8.533,8.533,8.533
				h32.402l83.652,84.48c3.413,2.56,6.827,4.267,10.24,4.267c4.267,0,7.68-1.707,10.24-4.267l28.16-28.16
				C504.781,466.356,504.781,456.969,499.661,451.849z M113.955,113.076h31.573v31.573h-31.573V113.076z M224.888,140.383
				c23.04-23.04,15.36-77.653,0-125.44c21.333-0.853,70.827,2.56,109.227,40.96s41.813,87.893,40.96,109.227
				c-52.053-16.213-98.987-14.507-119.467,5.973l-5.973,5.973l-29.867-29.867L224.888,140.383z M172.835,256.436
				c-20.48,20.48-22.187,67.413-5.973,119.467c-21.333,0.853-70.827-2.56-109.227-40.96c-38.4-38.4-41.813-87.893-40.96-109.227
				c47.787,15.36,102.4,23.04,126.293,0.853l5.547-5.547l29.867,29.867L172.835,256.436z M197.859,246.474
				c-0.425-1.029-1.082-1.935-1.985-2.838l-42.667-41.813l-17.92-17.92l23.975-23.975c0.599-0.456,1.137-0.996,1.604-1.604
				l23.061-23.061l60.584,60.584l0.003,0.003c0,0,0.001,0.001,0.001,0.001l17.919,17.919l-48.64,48.64L197.859,246.474z
				 M262.435,238.516l23.893,23.893l-23.893,23.893l-23.893-23.893L262.435,238.516z M270.968,301.663l15.587-15.587l15.987-15.987
				h23.893v23.893l-31.573,31.573h-23.893V301.663z M334.968,310.196l23.893,23.893l-23.893,23.893l-23.893-23.893L334.968,310.196z
				 M343.501,374.196l31.573-31.573h23.893v23.893l-12.629,12.629l-18.944,18.944h-23.893V374.196z M461.261,485.13l-78.507-78.507
				l23.893-23.893l78.507,78.507L461.261,485.13z"/>
			<path d="M259.875,65.289c13.653,3.413,31.573,8.533,44.373,22.187c13.653,12.8,18.773,31.573,22.187,44.373
				c1.707,3.413,5.12,5.973,8.533,5.973c0.853,0,1.707,0,1.707,0c4.267-0.853,6.827-5.973,5.973-10.24
				c-4.267-14.507-10.24-35.84-26.453-52.053c-16.213-16.213-37.547-22.187-52.053-26.453c-4.267-0.853-9.387,1.707-10.24,5.973
				S255.608,64.436,259.875,65.289z"/>
		</g>
	</g>
</g>
</svg>