<?xml version="1.0" encoding="iso-8859-1"?>
<!-- Uploaded to: SVG Repo, www.svgrepo.com, Generator: SVG Repo Mixer Tools -->
<svg fill="#000000" height="800px" width="800px" version="1.1" id="Layer_1" xmlns="http://www.w3.org/2000/svg" xmlns:xlink="http://www.w3.org/1999/xlink" 
	 viewBox="0 0 512 512" xml:space="preserve">
<g>
	<g>
		<path d="M439.652,133.565h16.696c27.618,0,50.087-22.469,50.087-50.087V50.087C506.435,22.469,483.966,0,456.348,0H55.652
			C28.034,0,5.565,22.469,5.565,50.087v33.391c0,27.618,22.469,50.087,50.087,50.087h16.696c0,6.185,0,138.455,0,144.696H55.652
			c-27.618,0-50.087,22.469-50.087,50.087v100.174c0,27.618,22.469,50.087,50.087,50.087h19.567
			C82.111,498.041,100.669,512,122.435,512h267.13c21.766,0,40.323-13.959,47.215-33.391h19.567
			c27.618,0,50.087-22.469,50.087-50.087V328.348c0-27.618-22.469-50.087-50.087-50.087h-16.696v-94.609V133.565z M72.348,445.217
			H55.652c-9.206,0-16.696-7.49-16.696-16.696v-50.087h33.391C72.348,385.746,72.348,436.72,72.348,445.217z M72.348,345.043H38.957
			v-16.696c0-9.206,7.49-16.696,16.696-16.696h16.696V345.043z M172.522,33.391h166.957v66.783H172.522V33.391z M55.652,100.174
			c-9.206,0-16.696-7.49-16.696-16.696V50.087c0-9.206,7.49-16.696,16.696-16.696h83.478v66.783
			C131.379,100.174,63.233,100.174,55.652,100.174z M406.261,461.913c0,9.206-7.49,16.696-16.696,16.696h-267.13
			c-9.206,0-16.696-7.49-16.696-16.696v-50.087h200.348v16.696c0,9.22,7.475,16.696,16.696,16.696s16.696-7.475,16.696-16.696
			v-16.696h66.783V461.913z M406.261,378.435H105.739v-83.478v-29.603c21.229,21.685,50.806,35.168,83.478,35.168h16.696v16.696
			c0,9.22,7.475,16.696,16.696,16.696h66.783c9.22,0,16.696-7.475,16.696-16.696v-16.696h16.696
			c32.672,0,62.249-13.482,83.478-35.168C406.261,277.718,406.261,366.339,406.261,378.435z M239.304,300.522V267.13h33.391v33.391
			H239.304z M406.261,183.652c0,46.03-37.448,83.478-83.478,83.478h-16.696v-16.696c0-9.22-7.475-16.696-16.696-16.696h-66.783
			c-9.22,0-16.696,7.475-16.696,16.696v16.696h-16.696c-46.03,0-83.478-37.448-83.478-83.478v-50.087h300.522V183.652z
			 M473.043,428.522c0,9.206-7.49,16.696-16.696,16.696h-16.696c0-7.672,0-59.585,0-66.783h33.391V428.522z M456.348,311.652
			c9.206,0,16.696,7.49,16.696,16.696v16.696h-33.391v-33.391H456.348z M372.87,100.174V33.391h83.478
			c9.206,0,16.696,7.49,16.696,16.696v33.391c0,9.206-7.49,16.696-16.696,16.696C448.769,100.174,380.62,100.174,372.87,100.174z"/>
	</g>
</g>
</svg>