<?xml version="1.0" encoding="iso-8859-1"?>
<!-- Uploaded to: SVG Repo, www.svgrepo.com, Generator: SVG Repo Mixer Tools -->
<svg fill="#000000" height="800px" width="800px" version="1.1" id="Layer_1" xmlns="http://www.w3.org/2000/svg" xmlns:xlink="http://www.w3.org/1999/xlink" 
	 viewBox="0 0 512 512" xml:space="preserve">
<g>
	<g>
		<path d="M424.851,228.766h-2.723V122.553c0-40.546-32.986-73.532-73.532-73.532h-35.997
			c-3.045-21.189-17.742-38.659-37.375-45.688c-0.198-0.075-0.398-0.145-0.604-0.205C268.779,1.111,262.519,0,256,0
			s-12.779,1.111-18.62,3.129c-0.205,0.06-0.405,0.13-0.603,0.205c-19.631,7.029-34.329,24.499-37.375,45.688h-35.997
			c-40.546,0-73.532,32.986-73.532,73.532v106.213h-2.723c-22.526,0-40.851,18.325-40.851,40.851v147.064
			c0,22.526,18.325,40.851,40.851,40.851h2.723v13.617c0,22.526,18.325,40.851,40.851,40.851h250.553
			c22.526,0,40.851-18.325,40.851-40.851v-13.617h2.723c22.526,0,40.851-18.325,40.851-40.851V269.617
			C465.702,247.091,447.377,228.766,424.851,228.766z M89.872,441.191h-2.723c-13.516,0-24.511-10.995-24.511-24.511V269.617
			c0-13.516,10.995-24.511,24.511-24.511h2.723V441.191z M280.511,24.532c7.836,5.896,13.491,14.54,15.518,24.489h-15.518V24.532z
			 M247.83,17.163c2.641-0.538,5.373-0.822,8.17-0.822s5.53,0.284,8.17,0.822v31.858h-16.34V17.163z M231.489,24.532v24.489h-15.518
			C217.999,39.072,223.654,30.428,231.489,24.532z M198.809,495.66h-27.234V384.89c0-4.512-3.658-8.17-8.17-8.17
			c-4.512,0-8.17,3.658-8.17,8.17v56.301h-24.511c-4.512,0-8.17,3.658-8.17,8.17s3.658,8.17,8.17,8.17h24.511v38.128h-24.511
			c-13.516,0-24.511-10.995-24.511-24.511V217.721c11.876,14.69,29.279,24.727,49.021,26.92v38.588c-4.512,0-8.17,3.658-8.17,8.17
			s3.658,8.17,8.17,8.17v35.404c0,16.519,13.438,29.957,29.957,29.957c4.902,0,9.529-1.191,13.617-3.288V495.66z M198.809,334.975
			c0,7.509-6.108,13.617-13.617,13.617c-7.509,0-13.617-6.108-13.617-13.617v-35.404h27.234V334.975z M198.809,283.231h-27.234
			v-38.124h27.234V283.231z M296.851,495.66h-81.702v-38.128h81.702V495.66z M296.851,283.231c-4.512,0-8.17,3.658-8.17,8.17
			s3.658,8.17,8.17,8.17v141.62h-81.702v-141.62c4.512,0,8.17-3.658,8.17-8.17s-3.658-8.17-8.17-8.17v-38.124h81.702V283.231z
			 M405.787,471.149c0,13.516-10.995,24.511-24.511,24.511h-24.511v-38.128h24.511c4.512,0,8.17-3.658,8.17-8.17
			s-3.658-8.17-8.17-8.17h-24.511V384.89c0-4.512-3.658-8.17-8.17-8.17s-8.17,3.658-8.17,8.17v110.77h-27.234V361.645
			c4.088,2.096,8.715,3.288,13.617,3.288c16.519,0,29.957-13.438,29.957-29.957v-35.404c4.512,0,8.17-3.658,8.17-8.17
			s-3.658-8.17-8.17-8.17v-38.588c19.742-2.193,37.145-12.23,49.021-26.92V471.149z M340.426,299.571v35.404
			c0,7.509-6.108,13.617-13.617,13.617s-13.617-6.108-13.617-13.617v-35.404H340.426z M313.191,283.231v-38.124h27.234v38.124
			H313.191z M405.787,171.574c0,28.761-21.344,52.621-49.021,56.599V89.872c0-4.512-3.658-8.17-8.17-8.17s-8.17,3.658-8.17,8.17
			v138.894h-27.234V89.872c0-4.512-3.658-8.17-8.17-8.17c-4.512,0-8.17,3.658-8.17,8.17v138.894h-81.702V89.872
			c0-4.512-3.658-8.17-8.17-8.17c-4.512,0-8.17,3.658-8.17,8.17v138.894h-27.234V89.872c0-4.512-3.658-8.17-8.17-8.17
			c-4.512,0-8.17,3.658-8.17,8.17v138.301c-27.677-3.977-49.021-27.838-49.021-56.599v-49.021c0-31.536,25.656-57.192,57.191-57.192
			h185.192c31.536,0,57.191,25.656,57.191,57.192V171.574z M449.362,416.681c0,13.516-10.995,24.511-24.511,24.511h-2.723V245.106
			h2.723c13.516,0,24.511,10.995,24.511,24.511V416.681z"/>
	</g>
</g>
</svg>