<?xml version="1.0" encoding="iso-8859-1"?>
<!-- Uploaded to: SVG Repo, www.svgrepo.com, Generator: SVG Repo Mixer Tools -->
<svg fill="#000000" height="800px" width="800px" version="1.1" id="Layer_1" xmlns="http://www.w3.org/2000/svg" xmlns:xlink="http://www.w3.org/1999/xlink" 
	 viewBox="0 0 512 512" xml:space="preserve">
<g>
	<g>
		<path d="M480.803,207.943c-4.068-56.213-28.96-108.434-70.2-147.162C368.864,21.586,314.331,0,257.045,0
			c-56.906,0-111.175,21.338-152.81,60.082C63.28,98.195,38.221,149.65,33.511,205.148c-20.724,24.37-33.25,55.915-33.25,90.337
			c0,11.073,1.311,22.121,3.895,32.84l2.753,11.417l9.492-6.915c11.003-8.014,23.796-12.668,37.269-13.617
			c24.681,52.789,69.693,94.591,124.25,115.157l5.534-14.681c-48.102-18.132-88.216-54.021-111.819-99.532
			c26.283,4.656,48.045,23.448,56.16,49.686l3.184,10.297l8.82-6.194c12.187-8.56,26.507-13.084,41.414-13.084
			c3.328,0,6.66,0.242,9.937,0.692v52.652c0,21.341,10.282,40.324,26.149,52.263v29.846h-11.506V512h27.195v-36.825
			c7.308,2.83,15.239,4.4,23.534,4.4c8.296,0,16.226-1.569,23.534-4.4v21.136V512h26.149v-15.689h-10.46v-29.846
			c15.867-11.939,26.149-30.922,26.149-52.263V361.41c2.934-0.36,5.918-0.552,8.891-0.552c14.907,0,29.227,4.524,41.415,13.084
			l8.82,6.194l3.184-10.297c0.064-0.208,0.139-0.411,0.205-0.619l0.051,0.011c0.015-0.066,0.051-0.231,0.106-0.485
			c8.621-26.413,31.151-45.069,58.079-48.961c-23.751,46.034-64.317,82.208-113.018,100.276l5.457,14.709
			c55.009-20.409,100.38-62.29,125.258-115.388c12.733,1.254,24.802,5.828,35.256,13.443l9.492,6.915l2.753-11.417
			c2.585-10.718,3.895-21.768,3.895-32.84C511.738,262.365,500.14,231.908,480.803,207.943z M114.924,71.568
			c38.723-36.033,89.195-55.879,142.122-55.879c53.279,0,103.999,20.075,142.816,56.528c33.496,31.455,55.393,72.477,62.928,117.178
			c-24.417-20.901-56.102-33.547-90.688-33.547c-21.844,0-42.777,4.914-62.216,14.606l-7.047,3.512l3.538,7.034
			c5.092,10.122,7.674,21.015,7.674,32.377c0,6.682-0.924,13.223-2.674,19.496l-44.917-44.623v54.645
			c-3.24-0.496-6.559-0.754-9.937-0.754c-3.377,0-6.696,0.257-9.937,0.754v-54.821l-45.65,45.953
			c-1.957-6.605-2.987-13.536-2.987-20.649c0-11.361,2.582-22.255,7.674-32.377l3.538-7.034l-7.047-3.512
			c-19.44-9.693-40.374-14.607-62.218-14.607c-33.441,0-64.169,11.82-88.238,31.496C59.573,143.118,81.587,102.592,114.924,71.568z
			 M304.902,248.559c-1.784,3.188-3.818,6.249-6.094,9.16c-4.972-4.23-10.577-7.737-16.66-10.339v-21.427L304.902,248.559z
			 M230.896,226.128v21.25c-6.343,2.714-12.162,6.412-17.291,10.885c-2.216-2.774-4.208-5.688-5.971-8.72L230.896,226.128z
			 M191.151,307.515v38.226c-3.293-0.372-6.618-0.572-9.938-0.572c-14.139,0-27.841,3.351-40.225,9.756
			c-1.514-9.716-3.389-25.11-3.612-42.803l-15.687,0.197c0.082,6.47,0.369,12.616,0.774,18.323
			c-3.383-3.566-7.059-6.858-11.001-9.811c-15.283-11.448-33.48-17.5-52.627-17.5c-14.67,0-28.829,3.578-41.539,10.431
			c-0.894-6.039-1.345-12.153-1.345-18.276c0-68.344,55.602-123.947,123.947-123.947c13.701,0,26.995,2.176,39.7,6.485
			c-31.695,18.892-51.087,53.744-56.415,101.958l15.595,1.723c4.639-41.97,20.015-71.576,45.771-88.32
			c-1.518,6.498-2.289,13.176-2.289,19.995c0,21.078,7.306,40.871,20.73,56.685C195.541,280.68,191.151,293.59,191.151,307.515z
			 M306.206,414.202c0,27.395-22.288,49.683-49.683,49.683s-49.683-22.288-49.683-49.683V307.514
			c0-27.395,22.288-49.683,49.683-49.683c27.395,0,49.683,22.288,49.683,49.683V414.202z M494.703,313.761
			c-12.712-6.853-26.87-10.431-41.539-10.431c-19.146,0-37.344,6.052-52.628,17.501c-3.901,2.922-7.544,6.176-10.898,9.7
			c0.402-5.676,0.685-11.785,0.767-18.213l-15.687-0.197c-0.224,17.719-2.104,33.135-3.619,42.849
			c-12.406-6.435-26.14-9.802-40.313-9.802c-2.965,0-5.944,0.153-8.891,0.449v-38.103c0-14.227-4.582-27.396-12.329-38.139
			c13.049-15.726,20.174-35.333,20.174-55.998c0-6.844-0.776-13.546-2.305-20.067c25.824,16.731,41.237,46.362,45.882,88.393
			l15.595-1.723c-5.331-48.231-24.735-83.089-56.45-101.977c12.687-4.295,25.96-6.465,39.638-6.465
			c68.344,0,123.947,55.602,123.947,123.947C496.048,301.608,495.598,307.722,494.703,313.761z"/>
	</g>
</g>
<g>
	<g>
		<path d="M230.797,43.673c-38.284,5.651-73.024,23.144-100.47,50.589c-0.391,0.391-0.78,0.784-1.167,1.179l11.199,10.988
			c0.354-0.361,0.71-0.721,1.066-1.076c25.04-25.04,56.737-41.003,91.664-46.158L230.797,43.673z"/>
	</g>
</g>
<g>
	<g>
		<path d="M111.619,116.216c-5.493,7.606-10.42,15.705-14.64,24.071l14.008,7.067c3.849-7.628,8.342-15.014,13.352-21.952
			L111.619,116.216z"/>
	</g>
</g>
<g>
	<g>
		<path d="M232.275,294.106c-11.43,0-20.729,9.3-20.729,20.73c0,11.43,9.3,20.73,20.729,20.73c11.431,0,20.73-9.3,20.73-20.73
			C253.005,303.405,243.706,294.106,232.275,294.106z M232.275,319.876c-2.779,0-5.039-2.261-5.039-5.04
			c0-2.779,2.26-5.041,5.039-5.041c2.779,0,5.041,2.261,5.041,5.041C237.315,317.615,235.055,319.876,232.275,319.876z"/>
	</g>
</g>
<g>
	<g>
		<path d="M281.815,294.106c-11.43,0-20.73,9.3-20.73,20.73c0,11.43,9.3,20.73,20.73,20.73c11.43,0,20.729-9.3,20.729-20.73
			C302.544,303.405,293.244,294.106,281.815,294.106z M281.816,319.876c-2.779,0-5.041-2.261-5.041-5.04
			c0-2.779,2.261-5.041,5.041-5.041s5.039,2.261,5.039,5.041C286.855,317.615,284.595,319.876,281.816,319.876z"/>
	</g>
</g>
</svg>