<?xml version="1.0" encoding="iso-8859-1"?>
<!-- Uploaded to: SVG Repo, www.svgrepo.com, Generator: SVG Repo Mixer Tools -->
<svg fill="#000000" height="800px" width="800px" version="1.1" id="Layer_1" xmlns="http://www.w3.org/2000/svg" xmlns:xlink="http://www.w3.org/1999/xlink" 
	 viewBox="0 0 512 512" xml:space="preserve">
<g>
	<g>
		<path d="M184.028,150.786c0.036-1.05,0.061-2.102,0.061-3.161V39.312l-72.58,50.097l0.212,0.309
			c-13.105-1.725-26.35-1.72-39.454,0.014l0.22-0.317L0,39.298v108.326c0,50.746,41.26,92.034,91.986,92.06
			c0.011-0.001,0.031-0.001,0.046,0c41.906-0.021,77.351-28.161,88.449-66.524l0.743,0.743c43.395-43.397,114.01-43.397,157.405,0
			l11.095-11.095C304.609,117.695,233.724,113.693,184.028,150.786z M168.4,147.625c0,42.103-34.267,76.358-76.39,76.37
			c-42.086-0.013-76.321-34.267-76.321-76.37V69.219l35.792,24.743c-6.03,1.675-11.995,3.727-17.868,6.16l6.004,14.494
			c33.808-14.002,71.048-14.002,104.856,0l6.004-14.494c-5.89-2.44-11.874-4.498-17.922-6.175L168.4,69.205V147.625z"/>
	</g>
</g>
<g>
	<g>
		<path d="M75.607,132.005c-14.89-14.889-40.241-12.369-41.315-12.257l-6.295,0.674l-0.674,6.295
			c-0.114,1.072-2.633,26.425,12.257,41.315c10.952,10.951,27.562,12.485,36.01,12.485c3.037,0,5.021-0.198,5.304-0.228l6.295-0.674
			l0.674-6.295C87.977,172.247,90.496,146.894,75.607,132.005z M50.676,156.938c-5.866-5.866-7.457-15.236-7.807-21.63
			c6.405,0.357,15.801,1.952,21.642,7.794c5.866,5.866,7.457,15.235,7.807,21.63C65.911,164.373,56.517,162.779,50.676,156.938z"/>
	</g>
</g>
<g>
	<g>
		<path d="M156.712,126.719l-0.674-6.295l-6.295-0.674c-1.073-0.112-26.425-2.633-41.315,12.257
			c-14.888,14.889-12.371,40.242-12.257,41.315l0.674,6.294l6.295,0.674c0.283,0.029,2.266,0.228,5.304,0.228
			c8.448,0,25.059-1.534,36.01-12.484C159.343,153.144,156.826,127.791,156.712,126.719z M133.36,156.937
			c-5.866,5.867-15.234,7.457-21.63,7.807c0.358-6.407,1.953-15.802,7.793-21.642c5.866-5.866,15.234-7.457,21.63-7.807
			C140.795,141.701,139.201,151.096,133.36,156.937z"/>
	</g>
</g>
<g>
	<g>
		<path d="M310.97,296.605l-13.13,8.588c14.383,21.986,35.911,38.743,60.619,47.185l5.073-14.848
			C342.114,330.215,323.449,315.681,310.97,296.605z"/>
	</g>
</g>
<g>
	<g>
		<path d="M298.908,271.015l-14.985,4.651c2.203,7.098,5.102,14.026,8.617,20.594l13.833-7.403
			C303.328,283.168,300.815,277.164,298.908,271.015z"/>
	</g>
</g>
<g>
	<g>
		<path d="M333.402,383.566v21.83h0.001c0,8.708-7.178,15.793-16.106,15.793c-8.806,0-15.97-7.084-15.97-15.793v-44.794h-15.689
			v44.794c0,17.36,14.202,31.482,31.761,31.482c17.475,0,31.693-14.123,31.693-31.482v-21.83H333.402z"/>
	</g>
</g>
<g>
	<g>
		<path d="M483.625,82.342h-4.619c-43.525,0-79.048,35.409-79.186,78.933c-0.04,12.512-10.105,22.69-22.437,22.69h-68.262v15.69
			h68.262c20.956,0,38.06-17.195,38.126-38.33c0.11-34.899,28.596-63.292,63.496-63.292h4.619c6.995,0,12.685,5.69,12.685,12.685
			s-5.69,12.685-12.685,12.685h-4.619c-20.956,0-38.06,17.195-38.126,38.33c-0.11,34.899-28.596,63.292-63.496,63.292h-37.466v15.69
			h17.905c0.01,27.203,17.16,51.945,42.684,61.571c9.458,3.567,15.569,12.259,15.569,22.142v116.646
			c0,8.789-7.15,15.939-16.012,15.939c-8.858,0-16.064-7.207-16.064-16.064v-42.08c0-18.368-12.646-34.116-30.751-38.296
			c-22.103-5.101-42.183-17.737-56.541-35.58c-14.561-18.094-22.579-40.842-22.579-64.052h-15.69c0,7.667,0.783,15.284,2.26,22.75
			c-17.664-3.824-36.01-3.798-53.785,0.173c-17.089,3.819-33.073,11.182-47.04,21.566v-43.112h-15.689v178.914
			c0,8.819-6.826,15.733-15.56,15.781c-8.753-0.047-15.596-6.962-15.596-15.781V312.325c0-14.411-11.772-26.14-26.252-26.163
			c-0.015,0-0.028,0-0.043,0c-14.416,0.022-26.137,11.75-26.137,26.163v93.071c0,8.708-7.153,15.793-15.946,15.793h-0.131
			c-8.822,0-15.998-7.084-15.998-15.793v-180.74h-15.69v180.74c0,17.36,14.215,31.482,31.688,31.482h0.131
			c17.444,0,31.635-14.123,31.635-31.482v-93.071c0-5.768,4.694-10.462,10.469-10.473c5.838,0.011,10.583,4.705,10.583,10.473
			v128.907c0,17.292,13.977,31.372,31.196,31.469l0.181,0.001v-0.001c17.198-0.097,31.158-14.177,31.158-31.469v-115.42
			c14.192-13.234,31.56-22.414,50.461-26.637c18.311-4.092,37.312-3.411,55.209,1.936c4.402,12.136,10.77,23.565,18.939,33.718
			c16.552,20.57,39.722,35.141,65.236,41.03c10.946,2.527,18.59,11.989,18.59,23.009v42.08c0,17.508,14.245,31.753,31.826,31.753
			c17.44,0,31.629-14.189,31.629-31.629V324.427c0-16.222-10.337-31.019-25.722-36.822c-19.45-7.335-32.52-26.177-32.531-46.891
			h3.873c43.525,0,79.048-35.409,79.186-78.933c0.04-12.512,10.105-22.69,22.437-22.69h4.619c15.646,0,28.375-12.729,28.375-28.375
			C512,95.071,499.271,82.342,483.625,82.342z"/>
	</g>
</g>
</svg>