<?xml version="1.0" encoding="iso-8859-1"?>
<!-- Uploaded to: SVG Repo, www.svgrepo.com, Generator: SVG Repo Mixer Tools -->
<svg fill="#000000" height="800px" width="800px" version="1.1" id="Layer_1" xmlns="http://www.w3.org/2000/svg" xmlns:xlink="http://www.w3.org/1999/xlink" 
	 viewBox="0 0 512 512" xml:space="preserve">
<g>
	<g>
		<g>
			<path d="M170.667,435.2c-3.106,0-6.025,0.836-8.533,2.295c-5.018-2.918-12.049-2.918-17.067,0
				c-5.018-2.918-12.049-2.918-17.067,0c-5.018-2.918-12.049-2.918-17.067,0c-5.018-2.918-12.049-2.918-17.067,0
				c-5.018-2.918-12.049-2.918-17.067,0c-5.018-2.918-12.049-2.918-17.067,0c-5.018-2.918-12.049-2.918-17.067,0
				c-5.018-2.918-12.049-2.918-17.067,0c-2.509-1.459-5.427-2.295-8.533-2.295V136.533h17.067v25.6c0,4.71,3.814,8.533,8.533,8.533
				H76.8c4.719,0,8.533-3.823,8.533-8.533v-25.6H102.4V409.6c0,4.71,3.814,8.533,8.533,8.533s8.533-3.823,8.533-8.533V128
				c0-4.71-3.814-8.533-8.533-8.533H76.8c-4.719,0-8.533,3.823-8.533,8.533v25.6H51.2V128c0-4.71-3.814-8.533-8.533-8.533H8.533
				C3.814,119.467,0,123.29,0,128v358.4c0,4.71,3.814,8.533,8.533,8.533H179.2c4.719,0,8.533-3.823,8.533-8.533v-34.133
				C187.733,442.854,180.07,435.2,170.667,435.2z M170.667,477.867h-153.6v-25.6c0,4.71,3.814,8.533,8.533,8.533
				s8.533-3.823,8.533-8.533c0,4.71,3.814,8.533,8.533,8.533s8.533-3.823,8.533-8.533c0,4.71,3.814,8.533,8.533,8.533
				s8.533-3.823,8.533-8.533c0,4.71,3.814,8.533,8.533,8.533s8.533-3.823,8.533-8.533c0,4.71,3.814,8.533,8.533,8.533
				c4.719,0,8.533-3.823,8.533-8.533c0,4.71,3.814,8.533,8.533,8.533s8.533-3.823,8.533-8.533c0,4.71,3.814,8.533,8.533,8.533
				s8.533-3.823,8.533-8.533c0,4.71,3.814,8.533,8.533,8.533s8.533-3.823,8.533-8.533c0,4.71,3.814,8.533,8.533,8.533
				s8.533-3.823,8.533-8.533V477.867z"/>
			<path d="M230.4,153.6c4.719,0,8.533-3.823,8.533-8.533V34.133H307.2v34.133h-42.667c-4.719,0-8.533,3.823-8.533,8.533
				s3.814,8.533,8.533,8.533h51.2c4.719,0,8.533-3.823,8.533-8.533V25.6c0-4.71-3.814-8.533-8.533-8.533H230.4
				c-4.719,0-8.533,3.823-8.533,8.533v119.467C221.867,149.777,225.681,153.6,230.4,153.6z"/>
			<path d="M145.067,187.733h17.067v25.6c0,4.71,3.814,8.533,8.533,8.533H204.8c4.719,0,8.533-3.823,8.533-8.533v-25.6H230.4v25.6
				c0,4.71,3.814,8.533,8.533,8.533h34.133c4.719,0,8.533-3.823,8.533-8.533v-25.6h17.067v25.6c0,4.71,3.814,8.533,8.533,8.533
				h34.133c4.719,0,8.533-3.823,8.533-8.533v-25.6h17.067c4.719,0,8.533-3.823,8.533-8.533c0-4.71-3.814-8.533-8.533-8.533h-25.6
				c-4.719,0-8.533,3.823-8.533,8.533v25.6h-17.067v-25.6c0-4.71-3.814-8.533-8.533-8.533h-34.133c-4.719,0-8.533,3.823-8.533,8.533
				v25.6h-17.067v-25.6c0-4.71-3.814-8.533-8.533-8.533H204.8c-4.719,0-8.533,3.823-8.533,8.533v25.6H179.2v-25.6
				c0-4.71-3.814-8.533-8.533-8.533h-25.6c-4.719,0-8.533,3.823-8.533,8.533C136.533,183.91,140.348,187.733,145.067,187.733z"/>
			<path d="M503.467,119.467h-34.133c-4.719,0-8.533,3.823-8.533,8.533v25.6h-17.067V128c0-4.71-3.814-8.533-8.533-8.533h-34.133
				c-4.719,0-8.533,3.823-8.533,8.533v281.6c0,4.71,3.814,8.533,8.533,8.533c4.719,0,8.533-3.823,8.533-8.533V136.533h17.067v25.6
				c0,4.71,3.814,8.533,8.533,8.533h34.133c4.719,0,8.533-3.823,8.533-8.533v-25.6h17.067V435.2c-3.106,0-6.025,0.836-8.533,2.295
				c-5.018-2.918-12.049-2.918-17.067,0c-5.018-2.918-12.049-2.918-17.067,0c-5.018-2.918-12.049-2.918-17.067,0
				c-5.018-2.918-12.049-2.918-17.067,0c-5.018-2.918-12.049-2.918-17.067,0c-5.018-2.918-12.049-2.918-17.067,0
				c-5.018-2.918-12.049-2.918-17.067,0c-5.018-2.918-12.049-2.918-17.067,0c-2.509-1.459-5.427-2.295-8.533-2.295
				c-9.412,0-17.067,7.654-17.067,17.067V486.4c0,4.71,3.814,8.533,8.533,8.533h170.667c4.719,0,8.533-3.823,8.533-8.533V128
				C512,123.29,508.186,119.467,503.467,119.467z M494.933,477.867h-153.6v-25.6c0,4.71,3.814,8.533,8.533,8.533
				s8.533-3.823,8.533-8.533c0,4.71,3.814,8.533,8.533,8.533s8.533-3.823,8.533-8.533c0,4.71,3.814,8.533,8.533,8.533
				c4.719,0,8.533-3.823,8.533-8.533c0,4.71,3.814,8.533,8.533,8.533c4.719,0,8.533-3.823,8.533-8.533
				c0,4.71,3.814,8.533,8.533,8.533s8.533-3.823,8.533-8.533c0,4.71,3.814,8.533,8.533,8.533s8.533-3.823,8.533-8.533
				c0,4.71,3.814,8.533,8.533,8.533c4.719,0,8.533-3.823,8.533-8.533c0,4.71,3.814,8.533,8.533,8.533s8.533-3.823,8.533-8.533
				c0,4.71,3.814,8.533,8.533,8.533s8.533-3.823,8.533-8.533V477.867z"/>
			<path d="M204.8,281.6c0-14.114-11.486-25.6-25.6-25.6s-25.6,11.486-25.6,25.6v34.133c0,4.71,3.814,8.533,8.533,8.533h34.133
				c4.719,0,8.533-3.823,8.533-8.533V281.6z M187.733,307.2h-17.067v-25.6c0-4.702,3.823-8.533,8.533-8.533s8.533,3.831,8.533,8.533
				V307.2z"/>
			<path d="M358.4,315.733V281.6c0-14.114-11.486-25.6-25.6-25.6c-14.114,0-25.6,11.486-25.6,25.6v34.133
				c0,4.71,3.814,8.533,8.533,8.533h34.133C354.586,324.267,358.4,320.444,358.4,315.733z M341.333,307.2h-17.067v-25.6
				c0-4.702,3.823-8.533,8.533-8.533c4.71,0,8.533,3.831,8.533,8.533V307.2z"/>
			<path d="M256,358.4c-28.237,0-51.2,22.963-51.2,51.2v76.8c0,4.71,3.814,8.533,8.533,8.533h85.333
				c4.719,0,8.533-3.823,8.533-8.533v-76.8C307.2,381.363,284.237,358.4,256,358.4z M290.133,477.867h-68.267V460.8h68.267V477.867z
				 M290.133,443.733h-68.267v-17.067h68.267V443.733z M221.867,409.6c0-18.825,15.309-34.133,34.133-34.133
				c18.825,0,34.133,15.309,34.133,34.133H221.867z"/>
		</g>
	</g>
</g>
</svg>