<?xml version="1.0" encoding="iso-8859-1"?>
<!-- Uploaded to: SVG Repo, www.svgrepo.com, Generator: SVG Repo Mixer Tools -->
<svg fill="#000000" height="800px" width="800px" version="1.1" id="Layer_1" xmlns="http://www.w3.org/2000/svg" xmlns:xlink="http://www.w3.org/1999/xlink" 
	 viewBox="0 0 512 512" xml:space="preserve">
<g>
	<g>
		<g>
			<path d="M196.267,187.733h8.533v76.8c0,4.71,3.823,8.533,8.533,8.533c4.71,0,8.533-3.823,8.533-8.533v-76.8h68.267v76.8
				c0,4.71,3.814,8.533,8.533,8.533s8.533-3.823,8.533-8.533v-76.8h8.533c4.719,0,8.533-3.823,8.533-8.533s-3.814-8.533-8.533-8.533
				H196.267c-4.71,0-8.533,3.823-8.533,8.533S191.556,187.733,196.267,187.733z"/>
			<path d="M21.786,220.962c4.224,2.125,9.344,0.401,11.443-3.814l26.505-53.001v49.186c0,4.71,3.823,8.533,8.533,8.533
				s8.533-3.823,8.533-8.533v-49.186l26.496,53.001c1.502,2.995,4.514,4.719,7.646,4.719c1.28,0,2.586-0.29,3.806-0.905
				c4.215-2.108,5.931-7.228,3.814-11.443l-42.658-85.333c-0.367-0.742-0.853-1.374-1.408-1.92
				c-1.553-1.698-3.746-2.799-6.229-2.799s-4.676,1.101-6.238,2.799c-0.546,0.546-1.033,1.178-1.399,1.92l-42.667,85.333
				C15.855,213.734,17.57,218.854,21.786,220.962z"/>
			<path d="M247.467,230.4v17.067c0,4.71,3.823,8.533,8.533,8.533s8.533-3.823,8.533-8.533V230.4c0-4.71-3.823-8.533-8.533-8.533
				S247.467,225.69,247.467,230.4z"/>
			<path d="M209.519,152.704c4.216,2.108,9.336,0.384,11.443-3.823l26.505-53.001v49.186c0,4.71,3.823,8.533,8.533,8.533
				s8.533-3.823,8.533-8.533V95.881l26.496,53.001c1.502,2.995,4.514,4.719,7.646,4.719c1.28,0,2.586-0.29,3.806-0.896
				c4.216-2.116,5.931-7.236,3.823-11.452l-41.771-83.533V17.067H307.2v17.067h-25.6c-4.719,0-8.533,3.823-8.533,8.533
				c0,4.71,3.814,8.533,8.533,8.533h34.133c4.719,0,8.533-3.823,8.533-8.533V8.533c0-4.71-3.814-8.533-8.533-8.533H256
				c-4.71,0-8.533,3.823-8.533,8.533v49.186l-41.771,83.533C203.588,145.468,205.303,150.588,209.519,152.704z"/>
			<path d="M443.733,358.4c-4.719,0-8.533,3.823-8.533,8.533V384c0,4.71,3.814,8.533,8.533,8.533c4.719,0,8.533-3.823,8.533-8.533
				v-17.067C452.267,362.223,448.452,358.4,443.733,358.4z"/>
			<path d="M397.252,220.962c4.215,2.116,9.335,0.401,11.452-3.814l26.496-53.001v49.186c0,4.71,3.814,8.533,8.533,8.533
				c4.719,0,8.533-3.823,8.533-8.533v-49.186l26.496,53.001c1.502,2.995,4.514,4.719,7.646,4.719c1.28,0,2.586-0.29,3.806-0.905
				c4.216-2.108,5.931-7.228,3.814-11.443l-42.667-85.333c-0.358-0.734-0.836-1.374-1.399-1.92
				c-1.553-1.698-3.738-2.799-6.229-2.799c-2.492,0-4.676,1.101-6.229,2.799c-0.563,0.546-1.041,1.186-1.408,1.92l-42.667,85.333
				C391.322,213.734,393.037,218.854,397.252,220.962z"/>
			<path d="M384,256h8.533v8.533c0,4.71,3.814,8.533,8.533,8.533c4.719,0,8.533-3.823,8.533-8.533V256h68.267v170.667
				c0,4.71,3.814,8.533,8.533,8.533s8.533-3.823,8.533-8.533V256h8.533c4.719,0,8.533-3.823,8.533-8.533s-3.814-8.533-8.533-8.533
				H384c-4.719,0-8.533,3.823-8.533,8.533S379.281,256,384,256z"/>
			<path d="M452.267,298.667c0-4.71-3.814-8.533-8.533-8.533c-4.719,0-8.533,3.823-8.533,8.533v17.067
				c0,4.71,3.814,8.533,8.533,8.533c4.719,0,8.533-3.823,8.533-8.533V298.667z"/>
			<path d="M375.467,332.8v-25.6h17.067v119.467c0,4.71,3.814,8.533,8.533,8.533c4.719,0,8.533-3.823,8.533-8.533v-128
				c0-4.71-3.814-8.533-8.533-8.533h-34.133c-4.719,0-8.533,3.823-8.533,8.533v25.6h-34.133v-25.6c0-4.71-3.814-8.533-8.533-8.533
				H281.6c-4.719,0-8.533,3.823-8.533,8.533v25.6h-34.133v-25.6c0-4.71-3.823-8.533-8.533-8.533h-34.133
				c-4.71,0-8.533,3.823-8.533,8.533v25.6H153.6v-25.6c0-4.71-3.823-8.533-8.533-8.533h-34.133c-4.71,0-8.533,3.823-8.533,8.533v128
				c0,4.71,3.823,8.533,8.533,8.533s8.533-3.823,8.533-8.533V307.2h17.067v25.6c0,4.71,3.823,8.533,8.533,8.533h51.2
				c4.71,0,8.533-3.823,8.533-8.533v-25.6h17.067v25.6c0,4.71,3.823,8.533,8.533,8.533h51.2c4.719,0,8.533-3.823,8.533-8.533v-25.6
				H307.2v25.6c0,4.71,3.814,8.533,8.533,8.533h51.2C371.652,341.333,375.467,337.51,375.467,332.8z"/>
			<path d="M494.933,452.267c-3.106,0-6.025,0.836-8.533,2.296c-5.018-2.918-12.049-2.918-17.067,0
				c-5.018-2.918-12.049-2.918-17.067,0c-5.018-2.918-12.049-2.918-17.067,0c-5.018-2.918-12.049-2.918-17.067,0
				c-5.018-2.918-12.049-2.918-17.067,0c-5.018-2.918-12.049-2.918-17.067,0c-5.018-2.918-12.049-2.918-17.067,0
				c-5.018-2.918-12.049-2.918-17.067,0c-2.509-1.459-5.427-2.296-8.533-2.296c-9.412,0-17.067,7.654-17.067,17.067v34.133
				c0,4.71,3.814,8.533,8.533,8.533h170.667c4.719,0,8.533-3.823,8.533-8.533v-34.133C512,459.921,504.337,452.267,494.933,452.267z
				 M494.933,494.933h-153.6v-25.6c0,4.71,3.814,8.533,8.533,8.533s8.533-3.823,8.533-8.533c0,4.71,3.814,8.533,8.533,8.533
				s8.533-3.823,8.533-8.533c0,4.71,3.814,8.533,8.533,8.533c4.719,0,8.533-3.823,8.533-8.533c0,4.71,3.814,8.533,8.533,8.533
				c4.719,0,8.533-3.823,8.533-8.533c0,4.71,3.814,8.533,8.533,8.533s8.533-3.823,8.533-8.533c0,4.71,3.814,8.533,8.533,8.533
				s8.533-3.823,8.533-8.533c0,4.71,3.814,8.533,8.533,8.533c4.719,0,8.533-3.823,8.533-8.533c0,4.71,3.814,8.533,8.533,8.533
				s8.533-3.823,8.533-8.533c0,4.71,3.814,8.533,8.533,8.533s8.533-3.823,8.533-8.533V494.933z"/>
			<path d="M256,375.467c-28.237,0-51.2,22.963-51.2,51.2v76.8c0,4.71,3.823,8.533,8.533,8.533h85.333
				c4.719,0,8.533-3.823,8.533-8.533v-76.8C307.2,398.43,284.237,375.467,256,375.467z M290.133,494.933h-68.267v-17.067h68.267
				V494.933z M290.133,460.8h-68.267v-17.067h68.267V460.8z M221.867,426.667c0-18.825,15.309-34.133,34.133-34.133
				c18.825,0,34.133,15.309,34.133,34.133H221.867z"/>
			<path d="M170.667,452.267c-3.106,0-6.025,0.836-8.533,2.296c-5.026-2.918-12.041-2.918-17.067,0
				c-5.026-2.918-12.041-2.918-17.067,0c-5.026-2.918-12.041-2.918-17.067,0c-5.026-2.918-12.041-2.918-17.067,0
				c-5.026-2.918-12.041-2.918-17.067,0c-5.026-2.918-12.041-2.918-17.067,0c-5.026-2.918-12.041-2.918-17.067,0
				c-5.026-2.918-12.041-2.918-17.067,0c-2.509-1.459-5.427-2.296-8.533-2.296C7.654,452.267,0,459.921,0,469.333v34.133
				C0,508.177,3.823,512,8.533,512H179.2c4.71,0,8.533-3.823,8.533-8.533v-34.133C187.733,459.921,180.079,452.267,170.667,452.267z
				 M170.667,494.933h-153.6v-25.6c0,4.71,3.823,8.533,8.533,8.533c4.71,0,8.533-3.823,8.533-8.533c0,4.71,3.823,8.533,8.533,8.533
				c4.71,0,8.533-3.823,8.533-8.533c0,4.71,3.823,8.533,8.533,8.533s8.533-3.823,8.533-8.533c0,4.71,3.823,8.533,8.533,8.533
				s8.533-3.823,8.533-8.533c0,4.71,3.823,8.533,8.533,8.533c4.71,0,8.533-3.823,8.533-8.533c0,4.71,3.823,8.533,8.533,8.533
				s8.533-3.823,8.533-8.533c0,4.71,3.823,8.533,8.533,8.533s8.533-3.823,8.533-8.533c0,4.71,3.823,8.533,8.533,8.533
				c4.71,0,8.533-3.823,8.533-8.533c0,4.71,3.823,8.533,8.533,8.533c4.71,0,8.533-3.823,8.533-8.533V494.933z"/>
			<path d="M8.533,256h8.533v179.2c0,4.71,3.823,8.533,8.533,8.533c4.71,0,8.533-3.823,8.533-8.533V256H102.4v8.533
				c0,4.71,3.823,8.533,8.533,8.533s8.533-3.823,8.533-8.533V256H128c4.71,0,8.533-3.823,8.533-8.533s-3.823-8.533-8.533-8.533
				H8.533c-4.71,0-8.533,3.823-8.533,8.533S3.823,256,8.533,256z"/>
			<path d="M76.8,298.667c0-4.71-3.823-8.533-8.533-8.533s-8.533,3.823-8.533,8.533v17.067c0,4.71,3.823,8.533,8.533,8.533
				s8.533-3.823,8.533-8.533V298.667z"/>
			<path d="M68.267,358.4c-4.71,0-8.533,3.823-8.533,8.533V384c0,4.71,3.823,8.533,8.533,8.533S76.8,388.71,76.8,384v-17.067
				C76.8,362.223,72.977,358.4,68.267,358.4z"/>
		</g>
	</g>
</g>
</svg>