<?xml version="1.0" encoding="iso-8859-1"?>
<!-- Uploaded to: SVG Repo, www.svgrepo.com, Generator: SVG Repo Mixer Tools -->
<svg fill="#000000" version="1.1" id="Layer_1" xmlns="http://www.w3.org/2000/svg" xmlns:xlink="http://www.w3.org/1999/xlink" 
	 viewBox="0 0 512.001 512.001" xml:space="preserve">
<g>
	<g>
		<path d="M445.398,46.918c-12.935,0-23.459,10.523-23.459,23.459s10.524,23.459,23.459,23.459
			c12.935,0,23.459-10.523,23.459-23.459S458.333,46.918,445.398,46.918z M445.398,78.197c-4.312,0-7.82-3.507-7.82-7.82
			c0-4.312,3.508-7.82,7.82-7.82c4.312,0,7.82,3.507,7.82,7.82C453.218,74.689,449.71,78.197,445.398,78.197z"/>
	</g>
</g>
<g>
	<g>
		<path d="M98.577,279.009l-15.617,0.823c0.463,8.804,1.6,17.618,3.38,26.199l15.314-3.177
			C100.035,295.047,99,287.025,98.577,279.009z"/>
	</g>
</g>
<g>
	<g>
		<path d="M165.718,400.078c-26.095-18.33-45.844-43.707-57.114-73.387l-14.621,5.551c12.384,32.616,34.081,60.499,62.745,80.633
			c29.325,20.599,63.834,31.488,99.794,31.488v-15.639C223.796,428.724,192.397,418.818,165.718,400.078z"/>
	</g>
</g>
<g>
	<g>
		<path d="M376.423,69.332c-15.975,0-29.999,8.499-37.797,21.212c-6.189-6.63-14.996-10.786-24.76-10.786
			c-10.082,0-19.145,4.431-25.358,11.443c-7.081-10.062-18.774-16.656-31.987-16.656c-12.427,0-23.511,5.834-30.677,14.901
			c-7.92-12.1-21.584-20.114-37.093-20.114c-15.975,0-29.999,8.499-37.797,21.212c-6.189-6.63-14.996-10.786-24.76-10.786
			c-18.335,0-33.304,14.639-33.859,32.843H36.529v58.387h29.887C49.9,201.994,41.22,236.69,41.22,272.121
			c0,62.907,27.122,119.595,70.282,158.996l-31.061,31.062c-5.514,5.513-8.551,12.844-8.551,20.643
			c0,7.798,3.036,15.128,8.549,20.643c5.692,5.691,13.167,8.537,20.644,8.537c7.476,0,14.951-2.846,20.643-8.537l38.71-38.71
			c28.941,14.495,61.575,22.67,96.086,22.67c34.511,0,67.145-8.175,96.086-22.67l38.71,38.71c5.692,5.691,13.167,8.537,20.643,8.537
			c7.477,0,14.952-2.846,20.644-8.537c5.513-5.514,8.549-12.845,8.549-20.643c0-7.798-3.036-15.129-8.549-20.643l-31.062-31.062
			c43.159-39.401,70.281-96.089,70.281-158.995c0-35.431-8.682-70.127-25.197-101.133h28.844v-58.388h-54.764
			C420.151,88.649,400.508,69.332,376.423,69.332z M376.423,84.972c15.46,0,28.094,12.302,28.646,27.629h-57.291
			C348.33,97.273,360.963,84.972,376.423,84.972z M313.866,95.398c9.709,0,17.647,7.629,18.193,17.203h-36.386
			C296.219,103.027,304.157,95.398,313.866,95.398z M256.522,90.185c12.586,0,22.885,9.963,23.433,22.416H233.09
			C233.637,100.148,243.936,90.185,256.522,90.185z M188.751,84.972c15.46,0,28.094,12.302,28.646,27.629h-57.291
			C160.658,97.273,173.292,84.972,188.751,84.972z M155.388,128.24h10.426v27.108h-10.426V128.24z M126.194,95.398
			c9.709,0,17.648,7.629,18.193,17.203h-36.386C108.547,103.027,116.485,95.398,126.194,95.398z M52.168,155.349v-5.213h26.066
			v-15.639H52.168v-6.256h56.302v27.108H52.168z M110.666,492.405c-5.283,5.284-13.881,5.285-19.168,0
			c-2.561-2.56-3.97-5.964-3.97-9.584c0-3.621,1.41-7.024,3.97-9.584l31.965-31.965c7.207,5.681,14.789,10.905,22.693,15.643
			L110.666,492.405z M421.546,473.236c2.56,2.56,3.969,5.964,3.969,9.584c0,3.62-1.41,7.024-3.97,9.584
			c-5.284,5.285-13.883,5.284-19.168,0l-35.491-35.49c7.904-4.739,15.486-9.962,22.694-15.643L421.546,473.236z M456.185,272.121
			c0,110.095-89.568,199.663-199.663,199.663S56.859,382.216,56.859,272.121c0-35.691,9.489-70.574,27.472-101.133h24.139v25.023
			h15.639v-67.77h15.639v88.623h15.639v-45.875h10.426V279.42h15.639V128.24h15.639v130.328h15.639v-87.58h215.981
			C446.695,201.548,456.185,236.431,456.185,272.121z M459.833,134.496H326.378v15.639h133.456v5.213H212.732V128.24h247.101
			V134.496z"/>
	</g>
</g>
<g>
	<g>
		<path d="M139.748,228.332v17.725c0,4.312-3.507,7.82-7.82,7.82c-4.312,0-7.82-3.507-7.82-7.82v-39.62H108.47v39.62
			c0,12.936,10.524,23.459,23.459,23.459s23.459-10.523,23.459-23.459v-17.725H139.748z"/>
	</g>
</g>
<g>
	<g>
		<path d="M197.092,270.037v38.577c0,4.312-3.507,7.82-7.82,7.82c-4.312,0-7.82-3.507-7.82-7.82v-18.767h-15.639v18.767
			c0,12.936,10.524,23.459,23.459,23.459c12.935,0,23.459-10.523,23.459-23.459v-38.577H197.092z"/>
	</g>
</g>
<g>
	<g>
		<rect x="289.891" y="134.498" width="26.065" height="15.639"/>
	</g>
</g>
<g>
	<g>
		<path d="M314.028,23.98c-12.935,0-23.459,10.523-23.459,23.459s10.524,23.459,23.459,23.459s23.459-10.523,23.459-23.459
			S326.962,23.98,314.028,23.98z M314.028,55.259c-4.312,0-7.82-3.507-7.82-7.82s3.508-7.82,7.82-7.82c4.312,0,7.82,3.507,7.82,7.82
			S318.34,55.259,314.028,55.259z"/>
	</g>
</g>
<g>
	<g>
		<path d="M371.372,0C355.563,0,342.7,12.862,342.7,28.672c0,15.81,12.863,28.672,28.672,28.672s28.672-12.862,28.672-28.672
			C400.044,12.862,387.181,0,371.372,0z M371.372,41.705c-7.187,0-13.033-5.846-13.033-13.033c0-7.187,5.847-13.033,13.033-13.033
			c7.187,0,13.033,5.846,13.033,13.033C384.405,35.859,378.559,41.705,371.372,41.705z"/>
	</g>
</g>
<g>
	<g>
		<path d="M229.575,1.043c-12.935,0-23.459,10.523-23.459,23.459s10.524,23.459,23.459,23.459s23.459-10.523,23.459-23.459
			S242.51,1.043,229.575,1.043z M229.575,32.321c-4.312,0-7.82-3.507-7.82-7.82c0-4.312,3.508-7.82,7.82-7.82
			c4.312,0,7.82,3.507,7.82,7.82C237.395,28.814,233.888,32.321,229.575,32.321z"/>
	</g>
</g>
<g>
	<g>
		<path d="M147.208,11.468c-15.809,0-28.672,12.862-28.672,28.672s12.863,28.672,28.672,28.672S175.88,55.95,175.88,40.14
			S163.018,11.468,147.208,11.468z M147.208,53.174c-7.187,0-13.033-5.847-13.033-13.033c0-7.187,5.847-13.033,13.033-13.033
			c7.187,0,13.033,5.846,13.033,13.033C160.241,47.327,154.395,53.174,147.208,53.174z"/>
	</g>
</g>
<g>
	<g>
		<path d="M66.926,51.087c-12.935,0-23.459,10.523-23.459,23.459s10.524,23.459,23.459,23.459s23.459-10.523,23.459-23.459
			S79.861,51.087,66.926,51.087z M66.926,82.367c-4.312,0-7.82-3.507-7.82-7.82c0-4.312,3.508-7.82,7.82-7.82
			c4.312,0,7.82,3.507,7.82,7.82C74.746,78.86,71.239,82.367,66.926,82.367z"/>
	</g>
</g>
</svg>