<?xml version="1.0" ?>
<!-- Uploaded to: SVG Repo, www.svgrepo.com, Generator: SVG Repo Mixer Tools -->
<svg fill="#000000" width="800px" height="800px" viewBox="0 0 64 64" xmlns="http://www.w3.org/2000/svg">
<g id="Pentagram">
<path d="M38.46,31.29l4.06-10.77A1,1,0,0,0,41,19.37L32,26.3l-9-6.93a1,1,0,0,0-1.55,1.15l4.06,10.77-7.32,5.64a1,1,0,0,0,.61,1.8h9.51L31.06,46a1,1,0,0,0,1.88,0l2.72-7.24h9.51a1,1,0,0,0,.61-1.8Zm.95-8.18L36.81,30l-3.17-2.45Zm-14.82,0,5.77,4.45L27.19,30ZM21.77,36.73l4.5-3.48,1.31,3.48ZM32,42.78l-1.53-4.05h3.06Zm2.28-6.05H29.72L27.93,32,32,28.83,36.07,32Zm2.14,0,1.31-3.48,4.5,3.48Z"/>
<path d="M32,7A25,25,0,1,0,57,32,25,25,0,0,0,32,7Zm0,48A23,23,0,1,1,55,32,23,23,0,0,1,32,55Z"/>
<path d="M32,11.71A20.29,20.29,0,1,0,52.29,32,20.31,20.31,0,0,0,32,11.71Zm0,38.58A18.29,18.29,0,1,1,50.29,32,18.32,18.32,0,0,1,32,50.29Z"/>
<path d="M32,21.17a2.8,2.8,0,1,0-2.79-2.8A2.8,2.8,0,0,0,32,21.17Zm0-3.59a.8.8,0,1,1-.79.79A.79.79,0,0,1,32,17.58Z"/>
<path d="M24.27,40.82a2.8,2.8,0,1,0,2.79,2.79A2.8,2.8,0,0,0,24.27,40.82Zm0,3.59a.8.8,0,1,1,.79-.8A.8.8,0,0,1,24.27,44.41Z"/>
<path d="M39.73,40.82a2.8,2.8,0,1,0,2.8,2.79A2.79,2.79,0,0,0,39.73,40.82Zm0,3.59a.8.8,0,1,1,.8-.8A.8.8,0,0,1,39.73,44.41Z"/>
<path d="M22.35,29.11a2.79,2.79,0,1,0-2.79,2.79A2.79,2.79,0,0,0,22.35,29.11Zm-3.58,0a.79.79,0,1,1,.79.79A.79.79,0,0,1,18.77,29.11Z"/>
<path d="M41.65,29.11a2.79,2.79,0,1,0,2.79-2.79A2.79,2.79,0,0,0,41.65,29.11Zm3.58,0a.79.79,0,1,1-.79-.79A.79.79,0,0,1,45.23,29.11Z"/>
</g>
</svg>