<?xml version="1.0" encoding="iso-8859-1"?>
<!-- Uploaded to: SVG Repo, www.svgrepo.com, Generator: SVG Repo Mixer Tools -->
<svg fill="#000000" height="800px" width="800px" version="1.1" id="Layer_1" xmlns="http://www.w3.org/2000/svg" xmlns:xlink="http://www.w3.org/1999/xlink" 
	 viewBox="0 0 502.613 502.613" xml:space="preserve">
<g transform="translate(1 1)">
	<g>
		<path d="M499.053,402.627c-12.625-11.994-30.85-15.105-46.047-9.354l-66.895-66.895l-30.845-278.31l8.108-8.108
			c3.413-3.413,5.973-8.533,5.973-12.8s-1.707-9.387-5.12-12.8l-10.24-10.24c-6.827-6.827-19.627-6.827-26.453,0L298.52,33.133
			c-25.6,26.453-78.507,34.133-79.36,34.133c-21.787,2.867-43.188,11.908-63.946,27.36L139.8,79.213
			c-5.973-5.973-14.507-5.973-20.48,0l-14.08,14.08L92.867,80.92l11.947-11.947c2.56-1.707,3.413-5.12,2.56-7.68
			s-2.56-5.12-5.12-5.973L42.52,31.427c-3.413-1.707-6.827-0.853-9.387,1.707c-2.56,1.707-3.413,5.973-2.56,8.533l24.747,60.587
			c0.853,2.56,3.413,4.267,5.973,5.12c0.853,0,0.853,0,1.707,0c2.56,0,4.267-0.853,5.973-2.56L80.92,92.867l12.373,12.373
			l-14.08,14.08c-5.973,5.973-5.973,14.507,0,20.48l15.871,15.871c-15.494,20.99-24.946,42.239-27.818,63.489
			c-0.853,0-7.68,52.907-34.133,79.36L4.12,328.387C0.707,331.8-1,336.067-1,341.187c0,4.267,1.707,9.387,5.12,12.8l10.24,10.24
			c3.413,3.413,7.68,5.12,12.8,5.12c4.267,0,9.387-2.56,12.8-5.973l8.108-8.108l277.729,30.781l67.568,67.075
			c-5.879,15.354-2.796,33.238,9.262,45.932c1.707,1.707,3.413,2.56,5.973,2.56c1.707,0,4.267-0.853,5.973-2.56l84.48-84.48
			C502.467,411.16,502.467,406.04,499.053,402.627z M66.413,84.333L54.467,54.467l29.867,11.947l-6.663,6.663
			c-0.975,0.426-1.9,1.047-2.724,1.871s-1.445,1.749-1.871,2.724L66.413,84.333z M438.467,402.627l-11.947,11.947l-34.452-34.452
			l-2.978-26.872L438.467,402.627z M151.612,168.577c0.744-0.999,1.473-1.956,2.175-2.843l206.927,206.927l-26.872-2.978
			l-41.296-41.296c-10.24-9.387-23.04-16.213-34.987-21.333c-7.68-4.267-14.507-6.827-19.627-11.093s-10.24-7.68-13.653-11.947
			c-9.387-10.24-16.213-23.04-22.187-35.84C196.12,237.08,191,226.84,183.32,219.16l-39.253-39.253
			C146.897,175.307,149.429,171.598,151.612,168.577z M180.109,143.415l16.865,16.865l22.187,22.187
			c7.68,7.68,18.773,12.8,29.867,17.92c11.947,5.973,25.6,11.947,35.84,22.187c4.267,4.267,7.68,8.533,11.947,13.653
			c3.413,5.12,6.827,12.8,10.24,20.48c5.12,11.947,11.093,25.6,21.333,35.84l41.296,41.296l2.978,26.872L165.642,153.695
			C169.415,150.633,174.405,147.074,180.109,143.415z M366.704,306.971L340.333,280.6c-7.68-7.68-11.947-18.773-17.067-29.867
			c-4.267-8.533-7.68-17.067-12.8-23.893c-4.267-5.973-9.387-11.093-13.653-15.36c-12.8-11.093-28.16-18.773-40.96-24.747
			c-9.387-4.267-19.627-9.387-24.747-14.507l-37.088-37.088c13.367-7.364,28.09-13.825,39.648-15.818
			c2.56,0,61.44-11.093,100.693-50.347c0,0,0.001-0.001,0.001-0.001l5.371-5.371L366.704,306.971z M338.627,15.213
			c0.853-0.853,1.707-0.853,2.56,0l10.24,10.24c0.853,0.853,0.853,1.707,0,2.56l-10.341,10.341
			c-0.793,0.576-1.468,1.257-2.008,2.008l-10.691,10.691l-5.973-5.973l-5.973-5.973L338.627,15.213z M220.867,83.48
			c0.853,0,52.053-6.827,83.627-32.427l11.093,12.8c-34.987,30.72-84.48,40.107-85.333,40.107
			c-16.099,2.76-35.416,11.72-51.68,21.397c-0.713,0.19-1.413,0.456-2.08,0.79c-8.717,5.811-16.638,11.226-22.424,15.976
			l-12.792-12.792c4.426-4.24,10.587-10.535,18.149-16.837c1.034-0.69,1.779-1.382,2.312-2.128
			C181.25,95.047,201.058,85.881,220.867,83.48z M128.707,93.72l11.947,11.947c-4.813,4.278-8.62,8.22-11.632,11.408l-11.835-11.835
			L128.707,93.72z M105.24,117.187l11.666,11.666c-3.3,3.102-7.501,7.489-12.092,12.654L92.867,129.56L105.24,117.187z
			 M83.48,220.867c2.446-20.178,11.904-40.356,27.742-60.22c0.44-0.391,0.856-0.805,1.271-1.22c1.779-2.313,3.517-4.468,5.199-6.476
			c3.532-3.997,7.327-7.978,11.369-11.943l12.908,12.908c-5.149,5.856-11.132,14.192-16.676,23.431
			c-0.203,0.406-0.367,0.824-0.499,1.25c-9.788,16.457-18.9,36.25-21.688,52.51c0,0-9.387,50.347-40.107,85.333l-11.947-11.947
			C76.653,272.92,83.48,221.72,83.48,220.867z M25.453,351.427l-9.387-9.387c-0.853-0.853-0.853-1.707,0-2.56l23.04-23.04
			l5.973,5.973l5.973,5.973l-23.04,23.04C27.16,352.28,26.307,352.28,25.453,351.427z M63.602,339.732l5.372-5.372
			c0.095-0.095,0.178-0.196,0.268-0.294c0.193-0.182,0.383-0.356,0.585-0.559c39.253-38.4,49.493-98.133,50.347-100.693
			c1.884-10.925,7.76-24.675,14.616-37.437l35.73,35.73c5.973,5.12,10.24,14.507,15.36,24.747c6.827,12.8,13.653,28.16,25.6,40.107
			c4.267,5.12,9.387,9.387,15.36,13.653c6.827,5.12,14.507,8.533,23.04,12.8c10.24,5.12,22.187,10.24,29.867,17.92l26.482,26.289
			L63.602,339.732z M380.121,392.068l34.452,34.452l-11.947,11.947l-49.377-49.377L380.121,392.068z M410.307,479.427
			c-4.267-9.387-2.56-21.333,5.12-29.013l35.84-35.84c5.12-5.12,11.093-7.68,17.92-7.68c3.413,0,6.827,0.853,11.093,2.56
			L410.307,479.427z"/>
	</g>
</g>
</svg>