<?xml version="1.0" ?>
<!-- Uploaded to: SVG Repo, www.svgrepo.com, Generator: SVG Repo Mixer Tools -->
<svg fill="#000000" width="800px" height="800px" viewBox="0 0 64 64" xmlns="http://www.w3.org/2000/svg">
<g data-name="Divination ball" id="Divination_ball">
<path d="M51.72,20c0-.91-.82-1.32-2.06-1.95a9.26,9.26,0,0,1-4.07-4.07c-.63-1.24-1-2.06-2-2.06s-1.32.82-1.94,2.06c-.11.22-.26.43-.39.64a17.06,17.06,0,0,0-16.22-2.25A9.14,9.14,0,0,1,22.3,9.06C21.68,7.82,21.27,7,20.36,7S19,7.82,18.41,9.06a9.21,9.21,0,0,1-4.07,4.07c-1.24.63-2.06,1-2.06,1.95S13.1,16.4,14.34,17a9.38,9.38,0,0,1,2.51,1.88A17,17,0,0,0,14,28.33a17.21,17.21,0,0,0,2.09,8.18,9.28,9.28,0,0,1-1.51,4.87c-.76,1.16-1.26,1.93-.81,2.71s1.37.74,2.76.66a9,9,0,0,1,2.26.15l-.89,4.88A3.61,3.61,0,0,0,18,57h26.3a3.61,3.61,0,0,0,.07-7.22l-1.61-8.89a16.95,16.95,0,0,0,4.78-17.47,9.19,9.19,0,0,1,2.14-1.53C50.9,21.27,51.72,20.86,51.72,20ZM15.24,15.23l-.32-.15.32-.16a11.22,11.22,0,0,0,5-5c0-.09.1-.2.16-.31.06.11.11.22.15.31A11.4,11.4,0,0,0,23,13.24a17.35,17.35,0,0,0-5,4A11.37,11.37,0,0,0,15.24,15.23ZM17,42.73l-.63,0-.35,0,.2-.29a11.28,11.28,0,0,0,1.81-6.78c0-.1,0-.22,0-.35l.3.19a11.26,11.26,0,0,0,6.77,1.82l.35,0c-.07.11-.13.21-.19.29a11.43,11.43,0,0,0-1.81,6.78c0,.1,0,.22,0,.35l-.3-.19a11.16,11.16,0,0,0-3.06-1.4h0A11.46,11.46,0,0,0,17,42.73ZM45.89,53.39A1.61,1.61,0,0,1,44.28,55H18a1.62,1.62,0,1,1,0-3.23h26.3A1.62,1.62,0,0,1,45.89,53.39Zm-3.57-3.62H19.94l.78-4.27a9.16,9.16,0,0,1,1.38.74,4.42,4.42,0,0,0,2.08,1,1.22,1.22,0,0,0,.63-.17c.75-.43.73-1.29.66-2.56A17,17,0,0,0,41,42.33ZM31.13,43.46a15.17,15.17,0,0,1-5.57-1.08,9.43,9.43,0,0,1,.81-2.61h.35a13.31,13.31,0,0,0,11-5.17v3.47a1,1,0,0,0,2,0V34.4a8.12,8.12,0,0,1,1.47-4.65c.39-.46.62-.78.66-.84a1,1,0,0,0,0-1.16c-.19-.27-4.78-6.65-10.67-6.65s-10.48,6.38-10.67,6.65a1,1,0,0,0,0,1.16c.19.27,4.78,6.66,10.67,6.66A9.39,9.39,0,0,0,35,34.69a11.3,11.3,0,0,1-7.4,3.06,1.62,1.62,0,0,0,.2-1.73c-.45-.79-1.36-.74-2.75-.66a9.24,9.24,0,0,1-5.57-1.49c-1.14-.75-1.91-1.25-2.68-.82A15.12,15.12,0,0,1,40.1,16.16,9,9,0,0,1,37.62,18h0c-.41.21-.77.4-1.07.58a13.93,13.93,0,0,0-5.42-1.2c-6.84,0-12.24,5.89-12.47,6.14a1,1,0,0,0,.07,1.42,1,1,0,0,0,.68.25,1,1,0,0,0,.74-.32c.05-.06,5-5.49,11-5.49a11.83,11.83,0,0,1,4.51,1c.23.63,1,1,2,1.52A9.25,9.25,0,0,1,41.7,26c.62,1.24,1,2.05,1.94,2.05s1.32-.81,2-2.05c.1-.21.24-.4.36-.6a14.65,14.65,0,0,1,.31,3A15.15,15.15,0,0,1,31.13,43.46Zm0-9.89c-3.93,0-7.39-3.77-8.59-5.24,1.2-1.47,4.66-5.23,8.59-5.23s7.37,3.74,8.58,5.22C37.89,30.74,34.38,33.57,31.13,33.57ZM48.76,20.11a11.22,11.22,0,0,0-5,5c0,.09-.1.2-.16.31-.06-.11-.11-.22-.15-.31a11.24,11.24,0,0,0-5-5L38.21,20l.31-.16a11.22,11.22,0,0,0,3.79-3.12h0a11.61,11.61,0,0,0,1.17-1.83c0-.09.09-.2.15-.31.06.11.12.22.16.31a11.22,11.22,0,0,0,5,5l.32.16Z"/>
<path d="M31.13,24.69h0a3.64,3.64,0,1,0,2.58,1.06A3.65,3.65,0,0,0,31.13,24.69Zm0,5.29a1.65,1.65,0,1,1,0-3.29h0a1.66,1.66,0,0,1,1.65,1.64A1.65,1.65,0,0,1,31.13,30Z"/>
</g>
</svg>