<?xml version="1.0" encoding="iso-8859-1"?>
<!-- Uploaded to: SVG Repo, www.svgrepo.com, Generator: SVG Repo Mixer Tools -->
<svg fill="#000000" height="800px" width="800px" version="1.1" id="Layer_1" xmlns="http://www.w3.org/2000/svg" xmlns:xlink="http://www.w3.org/1999/xlink" 
	 viewBox="0 0 512 512" xml:space="preserve">
<g>
	<g>
		<path d="M438.718,260.51c-1.57-4.833-6.76-7.476-11.594-5.907c-4.832,1.57-7.477,6.762-5.905,11.594
			c5.617,17.284,8.466,35.357,8.466,53.718c0,95.77-77.916,173.685-173.685,173.685S82.314,415.685,82.314,319.915
			c0-69.021,40.874-131.504,104.132-159.186c3.348-1.465,5.512-4.773,5.512-8.429V88.744h73.859c5.082,0,9.2-4.119,9.2-9.2
			c0-5.081-4.118-9.2-9.2-9.2h-78.053c-14.321,0-25.971-11.651-25.971-25.971c0-14.319,11.651-25.972,25.972-25.972h136.471
			c14.321,0,25.971,11.651,25.971,25.971c0,14.319-11.65,25.971-25.971,25.971h-26.523c-5.082,0-9.2,4.119-9.2,9.2
			s4.118,9.2,9.2,9.2h22.328V152.3c0,3.654,2.164,6.964,5.512,8.429c35.038,15.334,64.475,42.28,82.88,75.876
			c1.672,3.053,4.825,4.782,8.077,4.782c1.494,0,3.009-0.366,4.412-1.133c4.457-2.441,6.089-8.034,3.648-12.489
			c-19.377-35.368-49.812-64.071-86.128-81.372V86.397c17.517-5.938,30.165-22.527,30.165-42.026
			C368.607,19.905,348.701,0,324.236,0H187.764c-24.467,0-44.371,19.905-44.371,44.371c0,19.499,12.647,36.087,30.165,42.026v59.99
			c-66.81,31.764-109.643,99.219-109.643,173.528C63.915,425.831,150.083,512,256,512s192.085-86.169,192.085-192.085
			C448.085,299.62,444.933,279.633,438.718,260.51z"/>
	</g>
</g>
<g>
	<g>
		<path d="M394.532,289.744c-0.925-4.226-4.668-7.235-8.987-7.235c-0.022,0-0.042,0-0.063,0
			c-63.718,0.426-97.641,13.891-129.479,27.405c-31.838-13.513-65.763-26.98-129.49-27.405c-4.312-0.071-8.122,2.988-9.049,7.235
			c-2.159,9.881-3.254,20.03-3.254,30.166c0,28.375,8.389,55.775,24.262,79.236c1.779,2.629,4.677,4.047,7.629,4.046
			c1.774,0,3.567-0.511,5.147-1.581c4.209-2.847,5.313-8.567,2.464-12.776c-13.804-20.405-21.102-44.239-21.102-68.925
			c0-6.319,0.489-12.644,1.457-18.884c57.356,1.401,87.017,14.021,118.36,27.361c30.891,13.147,62.773,26.712,121.209,28.689
			c-7.22,22.737-21.058,43.202-39.744,58.459c-21.935,17.909-49.596,27.77-77.887,27.77c-29.467,0-58.013-10.601-80.38-29.849
			c-3.853-3.313-9.663-2.878-12.976,0.974c-3.315,3.852-2.879,9.66,0.972,12.975c25.704,22.12,58.514,34.304,92.383,34.304
			c32.521,0,64.315-11.335,89.524-31.918c24.846-20.286,42.254-48.597,49.017-79.71c2.152-9.839,3.242-19.989,3.242-30.167
			C397.787,309.773,396.691,299.624,394.532,289.744z M377.931,338.787c-44.885-1.092-72.824-9.063-97.875-18.878
			c25.042-9.809,52.968-17.786,97.873-18.883c0.968,6.239,1.457,12.564,1.457,18.884
			C379.386,326.248,378.893,332.568,377.931,338.787z"/>
	</g>
</g>
<g>
	<g>
		<path d="M199.162,333.625c-18.829,0-34.147,15.318-34.147,34.147s15.318,34.148,34.147,34.148s34.148-15.319,34.148-34.148
			S217.99,333.625,199.162,333.625z M199.162,383.519c-8.683,0-15.746-7.065-15.746-15.747c0-8.683,7.063-15.746,15.746-15.746
			c8.683,0,15.747,7.063,15.747,15.746C214.909,376.455,207.844,383.519,199.162,383.519z"/>
	</g>
</g>
<g>
	<g>
		<path d="M287.118,356.532c-15.465,0-28.047,12.582-28.047,28.047s12.582,28.047,28.047,28.047
			c15.464,0,28.046-12.582,28.046-28.047C315.164,369.114,302.582,356.532,287.118,356.532z M287.118,394.226
			c-5.319,0-9.647-4.328-9.647-9.647c0-5.319,4.328-9.647,9.647-9.647c5.319,0,9.646,4.328,9.646,9.647
			C296.764,389.898,292.437,394.226,287.118,394.226z"/>
	</g>
</g>
</svg>