<?xml version="1.0" encoding="iso-8859-1"?>
<!-- Uploaded to: SVG Repo, www.svgrepo.com, Generator: SVG Repo Mixer Tools -->
<svg fill="#000000" height="800px" width="800px" version="1.1" id="Layer_1" xmlns="http://www.w3.org/2000/svg" xmlns:xlink="http://www.w3.org/1999/xlink" 
	 viewBox="0 0 512 512" xml:space="preserve">
<g transform="translate(1 1)">
	<g>
		<g>
			<path d="M425.667,101.4V50.2c14.507,0,25.6-11.093,25.6-25.6c0-14.507-11.093-25.6-25.6-25.6H84.333
				c-14.507,0-25.6,11.093-25.6,25.6c0,14.507,11.093,25.6,25.6,25.6v51.2c-14.507,0-25.6,11.093-25.6,25.6s11.093,25.6,25.6,25.6
				h0.215c3.91,78.399,61.365,143.308,136.318,158.679v37.588c-14.507,0-25.6,11.093-25.6,25.6c0,14.469,11.037,25.54,25.488,25.597
				c-1.524,56.477-18.435,58.108-31.462,59.736h-2.56c-0.324,0-0.621,0-0.853,0c-0.037,0.006-0.071,0.016-0.107,0.023
				c-14.032,0.479-24.639,11.393-24.639,25.577c0,14.507,11.093,25.6,25.6,25.6h136.533c14.507,0,25.6-11.093,25.6-25.6
				c0-14.188-10.614-25.105-24.652-25.577c-0.032-0.007-0.062-0.016-0.094-0.023c-0.274,0-0.551,0-0.853,0h-2.56
				c-13.027-1.628-29.937-3.259-31.462-59.736c14.451-0.057,25.488-11.128,25.488-25.597c0-14.507-11.093-25.6-25.6-25.6v-37.588
				c74.954-15.371,132.409-80.28,136.318-158.679h0.215c14.507,0,25.6-11.093,25.6-25.6S440.173,101.4,425.667,101.4z M75.8,24.6
				c0-5.12,3.413-8.533,8.533-8.533h341.333c5.12,0,8.533,3.413,8.533,8.533s-3.413,8.533-8.533,8.533H84.333
				C79.213,33.133,75.8,29.72,75.8,24.6z M101.4,50.2h307.2v51.2H101.4V50.2z M323.267,476.867c5.12,0,8.533,3.413,8.533,8.533
				s-3.413,8.533-8.533,8.533H186.733c-5.12,0-8.533-3.413-8.533-8.533s3.413-8.533,8.533-8.533H323.267z M223.427,459.8
				c7.68-11.093,13.653-29.013,14.507-59.733h34.133c0.853,30.72,5.973,48.64,14.507,59.733H223.427z M297.667,374.467
				c0,5.12-3.413,8.533-8.533,8.533H280.6h-51.2h-8.533c-5.12,0-8.533-3.413-8.533-8.533s3.413-8.533,8.533-8.533h68.267
				C294.253,365.933,297.667,369.347,297.667,374.467z M272.067,314.733v34.133h-34.133v-34.133H272.067z M255,297.667
				c-81.92,0-149.333-64-153.6-145.067h307.2C404.333,233.667,336.92,297.667,255,297.667z M425.667,135.533H84.333
				c-5.12,0-8.533-3.413-8.533-8.533s3.413-8.533,8.533-8.533h341.333c5.12,0,8.533,3.413,8.533,8.533
				S430.787,135.533,425.667,135.533z"/>
			<path d="M220.867,67.267H152.6c-5.12,0-8.533,3.413-8.533,8.533s3.413,8.533,8.533,8.533h68.267c5.12,0,8.533-3.413,8.533-8.533
				S225.987,67.267,220.867,67.267z"/>
			<path d="M357.4,67.267h-68.267c-5.12,0-8.533,3.413-8.533,8.533s3.413,8.533,8.533,8.533H357.4c5.12,0,8.533-3.413,8.533-8.533
				S362.52,67.267,357.4,67.267z"/>
			<path d="M255,67.267c-5.12,0-8.533,3.413-8.533,8.533s3.413,8.533,8.533,8.533c5.12,0,8.533-3.413,8.533-8.533
				S260.12,67.267,255,67.267z"/>
			<path d="M391.533,67.267c-5.12,0-8.533,3.413-8.533,8.533s3.413,8.533,8.533,8.533s8.533-3.413,8.533-8.533
				S396.653,67.267,391.533,67.267z"/>
			<path d="M118.467,67.267c-5.12,0-8.533,3.413-8.533,8.533s3.413,8.533,8.533,8.533S127,80.92,127,75.8
				S123.587,67.267,118.467,67.267z"/>
			<path d="M229.4,263.533c5.12,0,8.533-3.413,8.533-8.533s-3.413-8.533-8.533-8.533c-37.547,0-68.267-30.72-68.267-68.267
				c0-5.12-3.413-8.533-8.533-8.533s-8.533,3.413-8.533,8.533C144.067,225.133,182.467,263.533,229.4,263.533z"/>
		</g>
	</g>
</g>
</svg>