<?xml version="1.0" encoding="iso-8859-1"?>
<!-- Uploaded to: SVG Repo, www.svgrepo.com, Generator: SVG Repo Mixer Tools -->
<!DOCTYPE svg PUBLIC "-//W3C//DTD SVG 1.1//EN" "http://www.w3.org/Graphics/SVG/1.1/DTD/svg11.dtd">
<svg fill="#000000" version="1.1" id="Capa_1" xmlns="http://www.w3.org/2000/svg" xmlns:xlink="http://www.w3.org/1999/xlink" 
	 width="800px" height="800px" viewBox="0 0 573.725 573.726"
	 xml:space="preserve">
<g>
	<path d="M415.466,385.804c-34.271-32.742-94.86-2.754-135.558-3.672c-20.502-0.612-88.434-14.994-89.352,20.196
		c0,3.366,2.754,4.896,5.202,4.59c2.142,0.612,4.284,1.53,6.12,2.142c0,0-0.306,0.307-0.612,0.307
		c-30.294,48.348-15.3,98.531,19.89,130.355c-10.098,6.12-15.912,20.809-3.978,28.458c10.098,6.426,24.174-0.918,26.01-12.24
		c20.196,11.628,43.758,18.36,68.237,17.748c25.704-0.611,48.042-10.403,65.484-25.704c7.344,8.263,19.584,14.076,29.376,6.12
		c4.284-3.672,5.813-9.485,3.672-14.688s-7.956-11.935-14.076-13.464c22.95-34.272,28.458-81.09,7.956-119.034
		C417.302,402.939,426.789,396.514,415.466,385.804z M200.349,403.552c0-0.306,0.306-0.918,0.306-1.224
		c0.918-21.42,71.298-10.404,85.068-10.099c36.719,0.918,71.604-16.218,108.936-8.874c10.098,11.322,10.403,16.83,0,16.83
		c-9.181,1.836-18.666,1.836-27.847,2.143c-11.934,0.306-23.867,0-36.107,0C286.947,401.41,244.413,409.978,200.349,403.552z
		 M223.299,560.836c-7.956-3.979-1.224-12.546,2.448-17.136v-0.307c3.978,3.366,8.262,6.426,12.852,9.486
		C234.621,557.164,230.337,564.202,223.299,560.836z M401.084,541.252c1.53,2.448,1.836,4.59-0.306,6.731
		c-5.509,5.202-13.771,0.307-18.973-4.283c3.366-3.366,6.732-7.038,9.792-11.017C394.046,535.744,398.636,537.273,401.084,541.252z
		 M312.039,561.448c-84.762,9.485-134.333-78.643-104.652-149.94c0.306-0.306,0-0.612,0-0.918
		c31.824,8.262,64.872,3.978,97.614,1.224c23.256-1.836,46.818,0.307,70.074-0.611c2.754,0,11.016-0.918,19.584-2.448
		c0,0.918,0,1.53,0.306,2.448C423.422,478.216,387.008,552.88,312.039,561.448z"/>
	<path d="M261.549,287.884c14.688-16.523,11.016-41.31-4.284-58.14c-19.584-21.727-53.55-28.764-79.56-15.606
		c-28.152,14.076-37.026,46.818-24.174,73.746s45.594,37.332,72.828,27.846c-0.306,7.956,2.142,21.114,12.852,18.055
		c5.508-1.53,7.038-7.956,6.426-14.076c3.672,4.284,7.65,7.038,14.382,6.12c1.836-0.307,3.06-1.53,2.754-3.672
		c-0.918-4.284-1.224-8.263-2.142-12.24c6.426,0.612,14.382-0.307,15.606-7.038C278.073,294.922,268.587,289.72,261.549,287.884z
		 M256.653,302.266c-3.06-0.612-5.202,2.143-3.978,5.202c2.142,4.284,2.448,8.568,3.672,13.158
		c-4.896,0.306-8.262-3.366-12.24-6.732c-0.918-2.447-2.448-4.896-4.284-5.813c-1.53-0.918-3.672,0.306-3.672,2.142
		c-0.306,4.284,6.426,13.464,1.53,17.136c-4.59,3.366-7.65-9.792-8.262-12.546c0.612-0.306,1.224-0.306,1.836-0.611
		c2.448-1.225,0.612-4.591-1.836-4.284c-24.174,4.59-47.736-0.307-63.342-20.809c-16.83-22.337-8.262-49.571,12.546-65.483
		c20.502-15.606,49.878-8.874,68.544,5.814c7.956,6.119,13.77,14.993,16.83,24.479c4.59,15.3-5.508,26.01-14.382,37.025
		c-1.836,2.448,0.612,6.427,3.366,4.591c0.918-0.612,1.836-1.225,2.448-1.836c0.306,0.306,0.918,0.611,1.53,0.918
		c4.284,1.224,9.486,2.447,12.24,6.426C271.035,303.796,257.571,302.572,256.653,302.266z"/>
	<path d="M214.119,266.771c-5.508-7.038-12.852-12.24-20.196-17.137c-5.202-3.366-13.158-9.485-19.584-9.18
		c-2.142,0-4.284,2.754-2.754,4.896c0.306,0.307,0.612,0.612,0.918,0.918c-4.284,13.771,1.53,29.988,8.262,41.922
		c4.896,8.874,16.83,23.562,28.764,16.83C223.911,296.758,222.993,278.398,214.119,266.771z M206.469,297.37
		c-8.568,6.12-18.36-11.016-21.42-16.524c-4.896-8.874-10.098-21.113-9.18-31.823c1.53,0.918,3.366,1.836,4.896,2.754
		c6.12,3.365,11.934,7.038,17.136,11.016C207.999,270.136,221.157,286.66,206.469,297.37z"/>
	<path d="M216.261,231.58c-3.366-0.918-29.682-9.18-27.234,0.306c0,0.307,0.306,0.612,0.612,1.225
		c-1.53-0.307-3.06,1.836-1.836,3.06c10.71,11.322,22.338,22.645,35.802,30.601c10.71,6.426,25.092,5.813,25.398-9.792
		C249.309,241.372,228.195,234.946,216.261,231.58z M240.741,261.874c-5.508,11.934-40.086-18.972-48.654-26.928
		C203.409,237.088,249.921,242.596,240.741,261.874z"/>
	<path d="M423.728,222.094c-3.365-16.523-20.502-41.615-38.556-24.786c-3.06,3.061-5.814,6.732-7.65,10.404
		c-1.529-4.284-4.283-7.649-8.567-9.18c-6.732-2.143-12.853,3.672-16.524,8.567c-3.978,5.509-6.12,13.158-3.672,19.584
		c2.754,7.65,10.71,10.404,18.054,10.711c-12.239,26.01-21.726,57.222-25.704,85.985c-5.508-6.426-14.688-9.486-22.949-5.202
		c-10.71,5.508-14.994,16.83-14.382,28.152c0,2.754,2.447,3.978,4.896,3.672c3.979-0.612,8.568,0.612,12.546-0.306
		c3.672-0.918,6.426-3.061,9.18-5.509c7.65,12.853,21.421,17.442,34.578,7.345c12.546-9.792,7.65-25.093-6.731-27.54
		c9.18-27.54,19.584-54.468,32.436-80.784c7.038,6.426,20.809,10.098,28.458,3.979C425.871,241.372,425.258,230.356,423.728,222.094
		z M415.161,239.23c-1.225,2.447-3.366,3.365-6.732,3.06c-5.813-0.306-10.403-4.59-15.912-5.814
		c-0.918-3.06-5.508-4.896-7.038-1.224c-15.3,31.212-27.54,63.954-35.189,97.92c-0.612,2.754,3.672,3.978,4.59,1.224
		c0.306-1.224,0.918-2.447,1.224-3.672c9.181,3.366,11.017,8.874,3.366,15.606c-9.792,8.874-20.502,0.611-24.786-9.486
		c-0.918-2.448-4.284-3.978-6.426-1.836c-3.06,3.672-6.12,7.344-11.322,7.038c-1.836,0-3.672,0-5.508,0
		c0.307-6.732,2.754-12.852,8.568-16.83c7.038-4.896,14.076-1.224,20.502,2.754c0,1.225-0.307,2.143-0.307,3.366
		c-0.306,1.836,3.061,2.448,3.366,0.306c7.345-33.966,23.256-64.871,30.906-98.531c0.612-2.754-3.366-4.896-4.896-2.143
		c0,0.307-0.307,0.612-0.307,0.918c-5.202-0.611-11.934-1.836-13.77-7.344c-1.53-4.284,0.306-9.18,2.754-12.852
		c1.836-2.754,4.896-6.12,8.262-6.12c4.59,0,5.814,10.71,6.12,13.77c0.306,4.284,5.814,4.896,7.344,0.918
		c2.754-7.344,9.792-23.256,19.278-21.42c7.344,1.53,12.24,10.404,14.688,16.83C416.384,223.318,418.527,233.11,415.161,239.23z"/>
	<path d="M339.884,70.012c-8.262,2.754-13.77,7.65-19.278,13.771c-18.054,19.89-27.846-3.366-38.861-13.771
		c-15.912-14.994-38.556-15.3-55.386-3.365c-20.502,14.688-21.114,65.483,7.956,66.708c0.918,1.224,2.448,1.836,3.978,0.918v0.306
		c0.306,0,0.306-0.306,0.612-0.306l0,0l0,0c6.12-4.591,11.322-11.017,16.218-16.83c4.896-5.814,12.546-13.158,14.382-20.809
		c0.612-2.142-1.836-4.59-3.978-3.06c-6.426,4.284-10.71,12.852-15.3,18.666c-4.59,5.813-10.098,11.016-14.382,17.136
		c-47.43-25.704,20.808-93.942,49.266-46.206c6.119,10.404,7.956,14.994,19.89,17.442c6.12,1.224,11.016-3.672,14.994-7.038
		c1.224-1.225,2.754-2.143,3.978-3.061c0.612,4.896,1.836,9.792,3.366,14.383c-7.956,3.672-15.605,6.731-22.644,8.262
		c0-0.307,0-0.612,0-0.918c-1.837-3.979-0.612-6.12,2.142-9.181c1.224-1.529-0.612-3.365-2.142-2.142
		c-3.979,3.979-4.591,7.344-2.143,12.546l0,0c-6.731,1.225-12.852,0.612-17.748-2.754c0-0.918-0.306-1.836-0.306-2.754
		c-0.612-2.142-3.672-2.142-4.59,0c-2.448,7.65-2.142,14.688-9.486,19.89c-6.426,4.59-14.994,3.061-21.726,0.307
		c-2.754-1.225-4.896,2.447-2.142,3.978c8.568,4.59,18.054,5.508,26.928,0.612c5.814-3.061,10.098-10.099,11.322-17.136
		c13.77,11.628,33.047,1.836,47.43-5.814c12.852-6.732,26.315-16.524,41.31-17.442c11.016-0.611,15.912,10.404,18.666,19.278
		c2.448,7.956-1.224,13.771-7.038,18.054c-1.224-0.306-2.754-0.306-3.978-0.611c-1.53-0.307-2.143,1.836-0.612,2.142
		c0.612,0,1.224,0.306,1.53,0.612c-5.202,3.366-11.017,5.813-15.301,7.344c-26.315,10.098-46.512,15.912-67.626,35.802
		c-14.687,13.771-17.441,31.824,6.732,33.354c2.142,0,3.06-1.836,2.754-3.366c0.612-0.306,1.224-0.612,1.224-1.224
		c6.732-42.841,87.822-33.049,105.57-77.725C433.52,77.968,375.075,57.772,339.884,70.012z M401.697,84.394
		c7.038,6.12,10.403,13.158,11.016,20.196c-0.306,0-0.612-0.306-1.224,0c-4.896,2.143-9.181,4.59-14.382,6.12
		c0-0.306,0-0.918,0-1.224c-0.919-5.814-2.448-10.404-4.284-13.771c3.366-3.06,6.731-6.426,7.956-10.71
		c0.306-0.612,0-0.918-0.307-1.224C401.084,84.088,401.39,84.394,401.697,84.394z M390.987,92.656
		c-4.896-6.12-12.24-7.038-20.809-5.508c0,0,0.307,0,0.307-0.307c0.306-3.672,0.306-7.038,0.306-10.71c0-1.53-2.143-1.53-2.143,0
		c0,3.672,0,7.038,0.307,10.71c0,0.307,0.306,0.307,0.306,0.307c-4.284,0.918-9.18,2.447-14.076,4.283
		c-1.529-5.201-2.754-10.098-3.365-15.605c-0.307-1.836-2.755-1.836-2.755,0c-0.306,5.813,1.225,11.322,3.061,16.83
		c-7.344,3.06-14.994,7.038-22.645,10.403c-1.529-5.201-2.447-10.403-3.06-15.605c22.95-17.136,48.042-26.01,73.746-4.59
		c-0.612-0.307-1.224-0.307-1.53,0.306C395.882,86.536,393.434,89.596,390.987,92.656z M305.613,201.898
		c-16.83-4.284-9.792-15.301,0.306-24.48c1.836,2.448,4.59,4.284,7.956,4.896C308.367,187.21,304.695,193.33,305.613,201.898z
		 M332.846,170.992c-5.508,2.448-11.322,5.202-16.218,8.874c0,0,0,0-0.306,0c-3.672-0.612-6.427-1.53-8.874-3.979
		c5.813-5.202,11.934-9.485,14.993-11.628c0.612-0.611,1.225-0.918,2.143-1.224c3.672,2.142,7.038,4.896,11.016,7.038
		C334.376,170.38,333.458,170.686,332.846,170.992z M337.13,169.462c-3.672-2.448-7.038-5.202-11.016-7.649
		c7.038-4.284,14.075-7.038,21.726-9.793c4.284,2.755,8.262,5.814,12.546,8.874c0.306,0.307,0.612,0.307,0.612,0.307
		C353.042,163.648,345.086,166.096,337.13,169.462z M379.358,153.856c-5.813,2.754-11.934,5.201-18.054,7.344
		c0.612-0.307,1.225-1.225,0.918-1.836c-2.754-3.366-6.12-6.12-10.098-8.568c1.224-0.306,2.142-0.612,3.366-1.224
		c4.283-1.225,8.567-2.754,13.157-4.59c3.061,1.529,6.12,3.06,9.181,4.59c0.918,0.611,1.836-0.918,0.918-1.53
		c-2.754-1.224-5.508-2.754-8.262-3.978c6.731-2.755,13.464-6.427,18.359-11.017c4.284,1.225,8.874,2.143,13.158,1.836
		C395.577,143.452,387.314,149.878,379.358,153.856z M404.144,132.742c-4.283-0.612-8.567-1.225-12.546-1.836
		c3.979-4.59,6.426-10.404,6.12-17.442c5.508-0.612,11.322-2.142,15.606-5.813C413.325,116.218,409.653,124.786,404.144,132.742z"/>
	<path d="M238.599,100.306c-0.918,0-2.142,0-3.06,0c0-0.306-0.306-0.611-0.306-0.611c0-0.307-0.306-0.612-0.306-0.918
		c-0.306-0.918-0.306-0.918,0-0.307c0.306-0.306,0.306-0.611,0-1.224c-0.306-0.612-0.612-1.224-0.612-1.53
		c-1.224-2.754-4.896-1.53-5.814,0.612c-0.612,1.53-0.306,3.06,0,4.59c-1.836,0.306-3.978,0.918-5.814,1.836
		c-1.53,0.612-0.306,3.061,1.224,2.448c1.836-0.612,3.672-1.225,5.508-1.225c1.224,2.755,2.448,5.509,3.672,7.65
		c1.836,3.979,7.956,0.612,6.12-3.366c-0.612-1.529-1.53-3.06-2.142-4.59c0.612,0,1.224,0,1.53,0
		C240.741,103.366,240.741,100.306,238.599,100.306z"/>
	<path d="M255.735,84.394c-1.836,0-3.366,0.307-5.202,0.612c-0.918-2.754-2.448-5.508-3.672-7.649
		c-1.53-2.755-5.202-0.307-3.978,2.447c0.918,2.143,1.53,4.59,2.142,6.732c-1.224,0.306-2.142,0.612-3.366,0.918
		c-2.142,0.918-0.612,4.896,1.53,3.978c0.918-0.306,1.836-0.611,2.754-0.611c0.306,1.224,0.612,2.447,1.224,3.365
		c0.612,1.837,3.06,1.837,3.672,0c0.612-1.529,0.612-2.754,0.612-4.283c1.224,0,2.754-0.307,3.978,0
		C259.101,89.29,259.101,84.088,255.735,84.394z"/>
	<path d="M223.299,359.794c-14.688,5.202-31.518,5.508-34.884-13.158c4.59,0.918,9.486,0.918,14.382,0
		c2.754-0.612,2.142-4.896-0.612-4.896c-12.24,1.224-23.562-1.225-33.048-9.486c-1.53-1.224-3.978,0.918-2.448,2.448
		c4.284,4.59,9.792,7.956,15.3,10.098c-18.36,16.218-57.528,11.934-52.02-18.972c0.306-2.448-1.53-3.672-3.06-3.672l0,0l0,0
		c-0.306,0-0.918,0-1.224,0.306c-2.754,0.306-5.202,0.918-7.956,1.224c-9.792,1.836-14.382-4.896-13.77-19.584
		c2.142-2.142,0.612-6.12-2.448-6.12c-26.928,0.612-49.572-12.239-51.408-41.003c-1.53-26.011,19.278-44.982,41.004-54.774
		c0.306,0.306,0.612,0.306,1.224,0.612c1.836,0.611,3.06-1.225,2.448-2.754c1.224-1.837,0-4.591-2.448-3.979
		c-0.612,0-0.918,0.306-1.224,0.612c-13.158-10.71-8.874-26.316,9.18-29.376c2.142-0.307,3.06-3.672,1.224-5.202
		c-15.606-12.24-11.934-48.042,11.628-37.944c0.306,7.038,1.836,14.076,6.12,19.584c1.224,1.53,3.978,0.612,3.366-1.224
		c-2.142-5.814-3.06-11.935-3.06-17.748c0.612-0.306,0.918-1.224,0.306-2.143c0-0.306-0.306-0.306-0.306-0.611
		c0.306-7.038,2.448-14.076,6.12-20.502c1.836-3.366-2.754-5.814-4.896-2.754c-3.06,4.59-5.202,9.792-6.426,15.605
		c-9.486-16.83-9.18-37.332,0-55.08c4.284-7.956,11.322-15.912,20.808-16.83c12.24-1.529,20.808,11.935,26.01,20.809
		c2.142,3.672,6.732,0.918,6.12-2.754c-2.754-7.956,0.612-13.464,10.404-15.912c2.754,2.448,5.508,4.896,8.262,7.649
		c2.142,1.836,4.896-0.611,3.672-2.754c-3.978-7.956-11.628-14.994-21.114-11.934c-5.508,1.836-7.65,7.038-8.262,12.546
		c-13.158-15.606-33.048-22.338-48.042-1.224c-14.382,20.195-16.218,49.878-0.612,69.155
		c-21.726-10.098-32.742,26.316-18.054,44.677c-17.442,5.813-22.95,25.703-8.568,36.107c-55.692,21.42-53.856,101.592,9.486,106.182
		c-11.934,18.055,11.628,31.212,29.682,21.42c-9.486,34.885,35.802,43.759,59.364,26.622c4.59,17.748,26.01,20.809,41.616,10.404
		C226.053,361.936,225.135,359.182,223.299,359.794z"/>
	<path d="M477.279,29.926c-14.994-7.038-31.212-4.59-45.9,2.448c-14.382,6.732-0.918,2.142-11.322-8.262
		c-6.426-6.427-15.912-4.896-23.868-3.366c-3.978,0.918-9.18,3.672-12.852,5.508c0.918-0.612-5.202-13.158-6.12-14.688
		c-3.978-7.65-11.934-10.099-19.584-11.322c-19.89-2.754-37.638,18.36-45.899,35.496c-4.896-21.727-23.868-25.398-40.086-14.076
		c-24.174-34.578-77.724-10.098-81.702,28.764c-0.306,1.836,2.754,2.143,3.366,0.307c8.568-30.294,53.856-57.223,74.664-22.032
		c1.224,2.142,3.978,2.448,5.814,0.612c13.77-12.853,24.786-9.792,33.047,8.874c0.612,1.529,2.142,2.142,3.366,1.836
		c0,0.306-0.307,0.611-0.307,0.918c-0.918,2.447,2.755,3.978,3.979,1.836c13.158-24.174,53.244-55.387,62.729-8.568
		c0.612,2.448,3.979,3.672,5.814,2.448c7.038-4.896,36.414-22.032,34.884,7.344c0,0.306,0.306,0.612,0.306,0.918
		c-4.59-0.306-9.485,0-14.382,0.918c-2.754,0.612-2.142,5.202,0.612,4.896c13.464-1.225,25.092,0.611,33.66,11.934
		c2.448,3.366,8.262,0.306,5.813-3.366c-4.896-7.344-11.321-11.321-18.666-13.158c41.616-29.987,78.03,4.896,91.494,46.206
		c6.732,20.196,7.65,43.759-1.224,63.343c-11.017,24.786-37.332,28.458-61.506,28.764c3.06-5.202,5.813-11.322,4.59-16.83
		c-0.612-2.754-4.59-2.448-5.202,0c-1.836,6.732-3.672,12.853-6.732,18.972c-1.224,2.448-2.447,4.591-3.365,6.732
		c-0.307,0.612-0.307,1.224,0,1.836c-0.307-0.306-0.307,0-0.307,0.612c-0.306,0-0.306,0-0.306,0c0,0.306-0.306,0.611-0.306,0.918
		c0,0.306,0.306,0.611,0.611,0.611c0.918-0.306,0.918-1.224,1.836-1.224c2.448-0.612,4.591-4.896,5.814-6.732
		c0,0,0-0.306,0.306-0.306c0.307,0.612,0.612,1.224,1.225,1.53c-0.918,0.918-1.225,2.754,0.306,3.978
		c9.486,6.732,25.092,31.212,1.224,30.601c-4.283,0-4.896,6.12-0.918,7.344c29.988,9.486-16.83,41.922-28.458,47.736
		c-0.306,0.306-0.306,0.306-0.611,0.611c-0.307-0.611-0.918-0.918-1.225-1.529c-1.224-1.225-3.366,0.306-2.142,1.836
		c10.71,14.075,7.038,30.6-9.18,32.13c0,0,0,0-0.307,0c-2.142,0-4.284,0-6.426,0c-4.896,0-4.896,7.037,0,7.649
		c1.836,0.306,3.672,0.306,5.508,0c-0.918,0.612-2.754,14.994-3.366,16.218c-4.284,9.181-14.382,11.935-22.644,15.912
		c-2.448,1.225-1.225,5.508,1.53,5.202c20.502-1.53,32.741-19.278,29.987-38.25c15.912-3.978,21.727-20.808,12.24-34.884
		c19.278-3.366,54.162-38.25,37.332-54.468c15.3-6.426,6.732-28.764-7.344-38.862C550.718,202.204,547.352,62.362,477.279,29.926z"
		/>
</g>
</svg>