<?xml version="1.0" encoding="iso-8859-1"?>
<!-- Uploaded to: SVG Repo, www.svgrepo.com, Generator: SVG Repo Mixer Tools -->
<svg fill="#000000" height="800px" width="800px" version="1.1" id="Layer_1" xmlns="http://www.w3.org/2000/svg" xmlns:xlink="http://www.w3.org/1999/xlink" 
	 viewBox="0 0 512.002 512.002" xml:space="preserve">
<g>
	<g>
		<g>
			<path d="M435.202,128.001c23.526,0,42.667-19.14,42.667-42.667c0-23.526-19.14-42.667-42.667-42.667
				c-23.526,0-42.667,19.14-42.667,42.667C392.536,108.861,411.676,128.001,435.202,128.001z M435.202,59.734
				c14.114,0,25.6,11.486,25.6,25.6s-11.486,25.6-25.6,25.6s-25.6-11.486-25.6-25.6S421.088,59.734,435.202,59.734z"/>
			<path d="M236.546,297.524L51.202,482.868l-36.634-36.634c-3.337-3.336-8.73-3.336-12.066,0c-3.336,3.337-3.336,8.73,0,12.066
				l42.667,42.667c1.664,1.664,3.849,2.5,6.033,2.5c2.185,0,4.369-0.836,6.033-2.5L248.612,309.59c3.328-3.328,3.328-8.73,0-12.066
				C245.276,294.196,239.874,294.196,236.546,297.524z"/>
			<path d="M47.669,435.201l-6.63,6.63c-3.337,3.336-3.337,8.738,0,12.066c1.664,1.673,3.849,2.5,6.033,2.5
				c2.176,0,4.361-0.828,6.033-2.5l170.086-170.086c3.337-3.336,3.337-8.738,0-12.066c-3.328-3.337-8.73-3.337-12.066,0
				L93.869,389.002l-11.034-11.034c-3.337-3.336-8.73-3.336-12.066,0c-3.336,3.337-3.336,8.73,0,12.066l11.034,11.034
				l-22.067,22.067l-28.1-28.1c-3.337-3.337-8.73-3.337-12.066,0c-3.337,3.336-3.337,8.73,0,12.066L47.669,435.201z"/>
			<path d="M409.602,153.601c0-4.71-3.823-8.533-8.533-8.533c-14.114,0-25.6-11.486-25.6-25.6c0-4.71-3.823-8.533-8.533-8.533
				s-8.533,3.823-8.533,8.533c0,14.114-11.486,25.6-25.6,25.6c-4.71,0-8.533,3.823-8.533,8.533c0,4.71,3.823,8.533,8.533,8.533
				c14.114,0,25.6,11.486,25.6,25.6c0,4.71,3.823,8.533,8.533,8.533s8.533-3.823,8.533-8.533c0-14.114,11.486-25.6,25.6-25.6
				C405.779,162.134,409.602,158.312,409.602,153.601z M366.935,162.16c-2.432-3.234-5.325-6.127-8.559-8.559
				c3.234-2.432,6.127-5.325,8.559-8.559c2.432,3.234,5.325,6.127,8.559,8.559C372.26,156.033,369.367,158.926,366.935,162.16z"/>
			<path d="M470.368,153.601c24.704-12.783,41.634-38.588,41.634-68.267c0-42.342-34.458-76.8-76.8-76.8
				c-29.687,0-55.484,16.93-68.267,41.634c-12.783-24.704-38.579-41.634-68.267-41.634c-42.342,0-76.8,34.458-76.8,76.8
				c0,29.679,16.93,55.484,41.634,68.267c-24.704,12.783-41.634,38.588-41.634,68.267c0,42.342,34.458,76.8,76.8,76.8
				c29.688,0,55.484-16.93,68.267-41.634c12.783,24.704,38.579,41.634,68.267,41.634c42.342,0,76.8-34.458,76.8-76.8
				C512.002,192.189,495.072,166.384,470.368,153.601z M435.202,281.601c-32.939,0-59.733-26.795-59.733-59.733
				c0-4.71-3.823-8.533-8.533-8.533s-8.533,3.823-8.533,8.533c0,32.939-26.795,59.733-59.733,59.733s-59.733-26.795-59.733-59.733
				c0-32.939,26.795-59.733,59.733-59.733c4.71,0,8.533-3.823,8.533-8.533c0-4.71-3.823-8.533-8.533-8.533
				c-32.939,0-59.733-26.795-59.733-59.733s26.795-59.733,59.733-59.733s59.733,26.795,59.733,59.733
				c0,4.71,3.823,8.533,8.533,8.533s8.533-3.823,8.533-8.533c0-32.939,26.795-59.733,59.733-59.733s59.733,26.795,59.733,59.733
				s-26.795,59.733-59.733,59.733c-4.71,0-8.533,3.823-8.533,8.533c0,4.71,3.823,8.533,8.533,8.533
				c32.939,0,59.733,26.795,59.733,59.733C494.935,254.806,468.141,281.601,435.202,281.601z"/>
			<path d="M435.202,179.201c-23.526,0-42.667,19.14-42.667,42.667c0,23.526,19.14,42.667,42.667,42.667
				c23.526,0,42.667-19.14,42.667-42.667C477.869,198.341,458.729,179.201,435.202,179.201z M435.202,247.468
				c-14.114,0-25.6-11.486-25.6-25.6c0-14.114,11.486-25.6,25.6-25.6s25.6,11.486,25.6,25.6
				C460.802,235.982,449.316,247.468,435.202,247.468z"/>
			<path d="M298.669,179.201c-23.526,0-42.667,19.14-42.667,42.667c0,23.526,19.14,42.667,42.667,42.667
				c23.526,0,42.667-19.14,42.667-42.667C341.336,198.341,322.195,179.201,298.669,179.201z M298.669,247.468
				c-14.114,0-25.6-11.486-25.6-25.6c0-14.114,11.486-25.6,25.6-25.6s25.6,11.486,25.6,25.6
				C324.269,235.982,312.783,247.468,298.669,247.468z"/>
			<path d="M341.336,85.334c0-23.526-19.14-42.667-42.667-42.667c-23.526,0-42.667,19.14-42.667,42.667
				c0,23.526,19.14,42.667,42.667,42.667C322.195,128.001,341.336,108.861,341.336,85.334z M298.669,110.934
				c-14.114,0-25.6-11.486-25.6-25.6s11.486-25.6,25.6-25.6s25.6,11.486,25.6,25.6S312.783,110.934,298.669,110.934z"/>
		</g>
	</g>
</g>
</svg>