<?xml version="1.0" encoding="iso-8859-1"?>
<!-- Uploaded to: SVG Repo, www.svgrepo.com, Generator: SVG Repo Mixer Tools -->
<svg fill="#000000" height="800px" width="800px" version="1.1" id="Layer_1" xmlns="http://www.w3.org/2000/svg" xmlns:xlink="http://www.w3.org/1999/xlink" 
	 viewBox="0 0 512 512" xml:space="preserve">
<g>
	<g>
		<g>
			<path d="M349.423,104.908c1.493-4.471-0.922-9.301-5.393-10.795l-25.6-8.533c-3.072-1.024-6.451-0.213-8.73,2.065
				c-2.287,2.278-3.081,5.666-2.057,8.73l8.533,25.6c1.186,3.576,4.514,5.837,8.09,5.837c0.888,0,1.801-0.137,2.697-0.444
				c4.471-1.485,6.886-6.323,5.393-10.795l-3.132-9.404l9.412,3.132C343.134,111.803,347.938,109.379,349.423,104.908z"/>
			<path d="M309.7,202.111c1.621,1.63,3.806,2.5,6.033,2.5c0.896,0,1.818-0.145,2.697-0.444l25.6-8.533
				c4.471-1.485,6.886-6.323,5.393-10.795c-1.485-4.463-6.289-6.886-10.786-5.393l-9.412,3.14l3.132-9.412
				c1.493-4.471-0.922-9.301-5.393-10.795c-4.497-1.502-9.301,0.93-10.786,5.393l-8.533,25.6
				C306.62,196.445,307.413,199.824,309.7,202.111z"/>
			<path d="M507.281,137.241l-12.971-6.485c-2.628-20.548-10.394-41.276-21.939-58.214l21.658-43.315
				c1.647-3.285,1.007-7.253-1.596-9.847c-2.603-2.603-6.562-3.226-9.847-1.604L439.27,39.44
				c-16.939-11.546-37.675-19.319-58.223-21.939l-6.485-12.979c-2.893-5.777-12.365-5.777-15.266,0l-6.477,12.979
				c-20.574,2.628-41.301,10.394-58.223,21.939l-43.315-21.666c-3.294-1.638-7.236-1.007-9.847,1.604
				c-2.603,2.594-3.243,6.562-1.604,9.847l21.666,43.324c-11.247,16.606-19.157,37.717-21.905,58.189l-13.005,6.502
				c-2.893,1.451-4.719,4.403-4.719,7.637s1.826,6.187,4.719,7.629l13.005,6.502c2.62,19.874,9.711,39.501,20.079,55.467
				L63.189,410.947c-4.036-1.024-8.055-1.536-11.989-1.536c-28.237,0-51.2,22.963-51.2,51.2c0,28.228,22.963,51.2,51.2,51.2
				s51.2-22.972,51.2-51.2c0-3.985-0.512-7.945-1.545-11.998l212.378-212.369c3.337-3.337,3.337-8.738,0-12.066
				c-3.337-3.337-8.73-3.337-12.066,0L85.163,440.174c-2.338,2.338-3.115,5.811-1.997,8.926c1.459,4.045,2.167,7.808,2.167,11.511
				c0,18.816-15.309,34.133-34.133,34.133s-34.133-15.317-34.133-34.133c0-18.825,15.309-34.133,34.133-34.133
				c3.721,0,7.484,0.7,11.503,2.159c3.089,1.126,6.596,0.35,8.926-1.997l216.004-215.996c3.336-3.337,3.336-8.738,0-12.066
				c-3.337-3.337-8.73-3.337-12.066,0l-3.499,3.499c-6.033-10.044-10.692-21.555-13.5-33.579l2.15,1.075
				c1.22,0.614,2.526,0.905,3.806,0.905c3.132,0,6.144-1.724,7.637-4.719c2.116-4.215,0.401-9.344-3.814-11.452l-18.867-9.429
				l18.867-9.438c4.215-2.108,5.931-7.228,3.814-11.452c-2.108-4.216-7.236-5.922-11.443-3.814l-2.065,1.033
				c3.755-15.59,10.658-30.839,19.593-42.761c1.946-2.594,2.253-6.05,0.811-8.943l-12.51-25.011l25.02,12.51
				c2.901,1.442,6.349,1.135,8.943-0.811c12.271-9.207,27.315-16.068,42.812-19.712l-1.092,2.176
				c-2.108,4.224-0.393,9.344,3.823,11.452c4.215,2.108,9.335,0.401,11.443-3.814l9.438-18.867l9.429,18.867
				c1.502,2.995,4.514,4.719,7.646,4.719c1.28,0,2.586-0.29,3.806-0.905c4.216-2.108,5.931-7.228,3.814-11.452l-1.084-2.176
				c15.488,3.635,30.532,10.496,42.82,19.712c2.577,1.946,6.033,2.253,8.934,0.811l25.02-12.51l-12.51,25.011
				c-1.442,2.893-1.135,6.349,0.811,8.943c9.216,12.297,16.068,27.324,19.712,42.82l-2.185-1.092
				c-4.207-2.108-9.335-0.401-11.452,3.814c-2.108,4.224-0.393,9.344,3.823,11.452l18.867,9.438l-18.867,9.429
				c-4.216,2.108-5.931,7.236-3.823,11.452c1.502,2.995,4.514,4.719,7.646,4.719c1.28,0,2.586-0.29,3.806-0.905l2.185-1.092
				c-3.644,15.497-10.496,30.532-19.712,42.829c-1.946,2.586-2.253,6.042-0.811,8.934l12.51,25.011l-25.02-12.501
				c-2.901-1.451-6.349-1.135-8.943,0.802c-11.716,8.798-26.231,13.193-41.694,17.425c2.031-4.198,0.333-9.25-3.849-11.341
				c-4.215-2.108-9.344-0.393-11.452,3.814l-9.429,18.876l-9.438-18.876c-2.108-4.207-7.228-5.922-11.443-3.814
				c-4.216,2.108-5.931,7.236-3.823,11.452l1.041,2.082c-2.756-0.64-5.487-1.323-8.064-2.099c-2.68-0.794-5.325-1.69-7.91-2.688
				c-4.378-1.673-9.327,0.495-11.034,4.898c-1.69,4.395,0.503,9.335,4.907,11.025c2.995,1.161,6.059,2.202,9.156,3.123
				c7.253,2.167,15.317,3.874,22.494,4.83l6.477,12.962c1.451,2.893,4.403,4.719,7.637,4.719s6.187-1.826,7.629-4.719l6.852-13.713
				c3.507-0.998,7.014-1.963,10.487-2.901c16.171-4.386,32.845-8.909,47.309-18.33l43.375,21.692
				c1.212,0.606,2.517,0.905,3.814,0.905c2.21,0,4.395-0.862,6.033-2.5c2.603-2.594,3.243-6.571,1.596-9.856l-21.658-43.315
				c11.546-16.93,19.311-37.658,21.939-58.206l12.971-6.494c2.893-1.442,4.719-4.395,4.719-7.629S510.174,138.691,507.281,137.241z"
				/>
			<path d="M51.362,452.078c-4.702,0-8.482,3.823-8.482,8.533s3.857,8.533,8.576,8.533c4.71,0,8.533-3.823,8.533-8.533
				s-3.823-8.533-8.533-8.533H51.362z"/>
			<path d="M406.903,127.367c0.896,0.307,1.809,0.444,2.697,0.444c3.575,0,6.903-2.261,8.09-5.837l8.533-25.6
				c1.024-3.063,0.23-6.451-2.057-8.73c-2.278-2.295-5.666-3.089-8.73-2.065l-25.6,8.533c-4.471,1.493-6.886,6.323-5.393,10.795
				c1.493,4.471,6.281,6.895,10.786,5.393l9.412-3.132l-3.132,9.404C400.017,121.044,402.432,125.883,406.903,127.367z"/>
			<path d="M389.837,195.634l25.6,8.533c0.879,0.299,1.792,0.444,2.697,0.444c2.227,0,4.412-0.879,6.033-2.5
				c2.287-2.287,3.081-5.666,2.057-8.738l-8.533-25.6c-1.493-4.463-6.281-6.895-10.786-5.393c-4.471,1.493-6.886,6.323-5.393,10.795
				l3.132,9.412l-9.412-3.14c-4.506-1.493-9.293,0.93-10.786,5.393C382.95,189.311,385.365,194.149,389.837,195.634z"/>
		</g>
	</g>
</g>
</svg>