<?xml version="1.0" encoding="iso-8859-1"?>
<!-- Uploaded to: SVG Repo, www.svgrepo.com, Generator: SVG Repo Mixer Tools -->
<svg fill="#000000" height="800px" width="800px" version="1.1" id="Layer_1" xmlns="http://www.w3.org/2000/svg" xmlns:xlink="http://www.w3.org/1999/xlink" 
	 viewBox="0 0 512.002 512.002" xml:space="preserve">
<g>
	<g>
		<polygon points="33.308,489.623 22.206,478.52 247.682,253.044 236.579,241.94 0,478.52 33.308,511.828 66.619,478.52 
			55.514,467.416 		"/>
	</g>
</g>
<g>
	<g>
		<path d="M363.44,115.08L251.384,227.136l11.103,11.104l78.249-78.249l11.104,11.103L70.319,452.612l11.103,11.102L396.75,148.387
			L363.44,115.08z M351.839,148.886l11.602-11.602l11.104,11.103l-11.602,11.602L351.839,148.886z"/>
	</g>
</g>
<g>
	<g>
		<path d="M301.979,67.588h-14.591c-8.122,20.437-13.897,26.213-34.335,34.335v14.592c20.437,8.122,26.213,13.897,34.335,34.335
			h14.591c8.121-20.437,13.896-26.213,34.335-34.335v-14.593C315.876,93.801,310.1,88.026,301.979,67.588z M294.684,129.52
			c-5.229-9.025-11.277-15.072-20.302-20.301c9.023-5.229,15.073-11.277,20.302-20.301c5.228,9.022,11.277,15.073,20.301,20.301
			C305.961,114.447,299.911,120.498,294.684,129.52z"/>
	</g>
</g>
<g>
	<g>
		<path d="M328.673,0.174h-14.591c-5.709,14.366-9.501,18.159-23.867,23.867v14.591c14.366,5.709,18.158,9.502,23.867,23.868h14.591
			c5.708-14.366,9.5-18.158,23.867-23.867V24.041C338.172,18.332,334.381,14.54,328.673,0.174z M321.377,42.187
			c-2.991-4.424-6.427-7.859-10.85-10.85c4.423-2.991,7.858-6.426,10.85-10.85c2.99,4.423,6.426,7.86,10.85,10.85
			C327.803,34.327,324.367,37.765,321.377,42.187z"/>
	</g>
</g>
<g>
	<g>
		<path d="M376.407,46.652h-14.591c-5.708,14.366-9.5,18.158-23.867,23.867v14.593c14.367,5.709,18.159,9.501,23.867,23.867h14.591
			c5.708-14.366,9.5-18.158,23.867-23.867V70.519C385.907,64.81,382.115,61.018,376.407,46.652z M369.111,88.666
			c-2.99-4.424-6.426-7.859-10.85-10.85c4.425-2.99,7.86-6.426,10.85-10.85c2.99,4.423,6.426,7.859,10.85,10.85
			C375.536,80.805,372.1,84.242,369.111,88.666z"/>
	</g>
</g>
<g>
	<g>
		<path d="M267.853,11.006c-33.176,12.968-61.504,35.34-81.919,64.698c-20.896,30.05-31.942,65.349-31.942,102.082
			c0,32.323,8.709,64.002,25.189,91.612l13.484-8.047c-15.027-25.178-22.97-54.075-22.97-83.566
			c0-33.511,10.073-65.71,29.131-93.117c18.631-26.792,44.477-47.207,74.744-59.038L267.853,11.006z"/>
	</g>
</g>
<g>
	<g>
		<path d="M472.335,65.406c-25.201-31.208-60.497-53.279-99.385-62.147l-3.49,15.31c35.466,8.087,67.663,28.224,90.659,56.702
			c23.331,28.893,36.181,65.301,36.181,102.516c0,90.045-73.257,163.302-163.302,163.302c-25.432,0-49.794-5.682-72.41-16.889
			l-6.972,14.069c24.801,12.29,51.509,18.521,79.382,18.521c98.704,0,179.004-80.301,179.004-179.004
			C512,136.993,497.913,97.082,472.335,65.406z"/>
	</g>
</g>
<g>
	<g>
		<path d="M241.511,122.698l-13.444-8.115c-11.479,19.019-17.548,40.874-17.548,63.201c0,17.749,3.716,34.872,11.045,50.896
			l14.28-6.531c-6.385-13.959-9.621-28.886-9.621-44.364C226.223,158.317,231.509,139.268,241.511,122.698z"/>
	</g>
</g>
<g>
	<g>
		<path d="M447.261,133.61l-14.645,5.666c4.747,12.268,7.154,25.224,7.154,38.509c0,58.876-47.898,106.774-106.774,106.774
			c-6.391,0-12.791-0.568-19.023-1.689l-2.778,15.455c7.147,1.284,14.482,1.936,21.801,1.936
			c67.534,0,122.477-54.943,122.477-122.477C455.472,162.556,452.71,147.693,447.261,133.61z"/>
	</g>
</g>
<g>
	<g>
		<path d="M428.551,101.163l-12.245,9.83c4.613,5.747,8.637,11.98,11.961,18.526l14.001-7.108
			C438.456,114.902,433.839,107.753,428.551,101.163z"/>
	</g>
</g>
</svg>