<?xml version='1.0' encoding='iso-8859-1'?>
<!-- Uploaded to: SVG Repo, www.svgrepo.com, Generator: SVG Repo Mixer Tools -->
<svg fill="#000000" version="1.1" xmlns="http://www.w3.org/2000/svg" viewBox="0 0 297 297" xmlns:xlink="http://www.w3.org/1999/xlink" enable-background="new 0 0 297 297">
  <g>
    <rect width="16" x="140.5" height="33"/>
    <rect width="33" x="41.5" y="99" height="16"/>
    <rect width="33" x="222.5" y="99" height="16"/>
    <path d="m78.829,25.682l23.335,23.335-11.313,11.314-23.335-23.335 11.313-11.314zm140.008,162.638l-23.335-23.335 11.314-11.314 23.335,23.335-11.314,11.314zm-140.017-.004l-11.314-11.314 23.335-23.335 11.314,11.314-23.335,23.335zm140.007-162.63l11.313,11.314-23.334,23.334-11.313-11.314 23.334-23.334z"/>
    <circle cx="183.908" cy="23.323" r="8.25"/>
    <circle cx="114.644" cy="22.958" r="8.251"/>
    <circle cx="65.408" cy="71.675" r="8.25"/>
    <circle cx="65.041" cy="140.939" r="8.25"/>
    <circle cx="113.759" cy="190.175" r="8.25"/>
    <circle cx="183.023" cy="190.541" r="8.251"/>
    <circle cx="232.26" cy="141.823" r="8.25"/>
    <circle cx="232.625" cy="72.56" r="8.251"/>
    <polygon points="183.634,154.63 177.04,115.692 205.371,88.116 166.297,82.436 148.823,47.009 131.343,82.436 92.25,88.116    120.542,115.692 113.698,154.63 140.5,140.452 140.5,297 156.5,297 156.5,140.452  "/>
  </g>
</svg>