<?xml version="1.0" encoding="iso-8859-1"?>
<!-- Uploaded to: SVG Repo, www.svgrepo.com, Generator: SVG Repo Mixer Tools -->
<svg fill="#000000" version="1.1" id="Layer_1" xmlns="http://www.w3.org/2000/svg" xmlns:xlink="http://www.w3.org/1999/xlink" 
	 viewBox="0 0 512 512" xml:space="preserve">
<g>
	<g>
		<path d="M355.995,370.671c-24.027,10.839-49.688,16.336-76.268,16.336c-38.32,0-75.103-11.575-106.374-33.474l-9.001,12.852
			c33.922,23.755,73.818,36.312,115.374,36.312c28.821,0,56.652-5.963,82.72-17.724L355.995,370.671z"/>
	</g>
</g>
<g>
	<g>
		<path d="M385.097,354.232c-6.103,4.214-12.518,8.098-19.067,11.543l7.303,13.885c7.102-3.736,14.06-7.948,20.679-12.518
			L385.097,354.232z"/>
	</g>
</g>
<g>
	<g>
		<path d="M279.728,0c-35.198,0-69.843,9.219-100.189,26.659c-26.709,15.35-49.651,36.777-66.859,62.291
			c-2.226-3.054-4.079-6.923-6.195-12.248H91.904c-5.705,14.355-9.493,18.143-23.848,23.848v14.58
			c12.607,5.01,17.065,8.546,21.827,19.055c-3.078,8.705-5.558,17.613-7.408,26.665c-0.874-1.944-1.754-4.04-2.664-6.328h-14.58
			c-8.115,20.42-13.886,26.192-34.308,34.308v14.58c20.421,8.116,26.193,13.886,34.308,34.308h14.58
			c0.435-1.094,0.862-2.138,1.285-3.15c5.537,33.503,19.433,64.89,40.819,91.841l12.29-9.752
			c-23.503-29.621-37.193-65.05-39.714-102.671c4.724-4,10.808-7.07,19.628-10.575v-14.582c-8.253-3.28-14.111-6.177-18.701-9.813
			c1.64-13.674,4.8-27.106,9.412-40.039h1.655c5.705-14.355,9.493-18.143,23.848-23.848v-14.58c-1.87-0.744-3.558-1.454-5.098-2.16
			c15.922-23.83,37.253-43.835,62.122-58.127c27.97-16.074,59.912-24.572,92.371-24.572c102.373,0,185.659,83.286,185.659,185.659
			c0,41.923-13.633,81.483-39.425,114.402l12.351,9.676c27.976-35.708,42.763-78.614,42.763-124.079
			C481.076,90.324,390.752,0,279.728,0z M72.522,216.404c-5.225-9.017-11.268-15.061-20.285-20.285
			c9.017-5.225,15.061-11.268,20.285-20.285c5.225,9.017,11.268,15.061,20.285,20.285C83.79,201.343,77.748,207.387,72.522,216.404z
			 M99.194,118.68c-2.987-4.419-6.422-7.854-10.841-10.841c4.419-2.987,7.853-6.422,10.841-10.841
			c2.987,4.419,6.422,7.854,10.841,10.841C105.616,110.826,102.181,114.261,99.194,118.68z"/>
	</g>
</g>
<g>
	<g>
		<polygon points="411.224,316.887 396.125,321.152 438.514,471.207 364.451,471.207 364.451,486.897 442.945,486.897 
			445.605,496.311 113.837,496.311 116.482,486.897 193.959,486.897 193.959,471.207 120.892,471.207 163.071,321.142 
			147.967,316.897 93.129,512 466.34,512 		"/>
	</g>
</g>
<g>
	<g>
		<path d="M154.179,144.061H139.6c-5.705,14.355-9.493,18.143-23.848,23.848v14.58c14.355,5.705,18.143,9.493,23.848,23.848h14.58
			c5.705-14.355,9.493-18.143,23.848-23.848v-14.58C163.673,162.204,159.884,158.416,154.179,144.061z M146.89,186.041
			c-2.987-4.419-6.422-7.854-10.841-10.841c4.419-2.987,7.854-6.422,10.841-10.841c2.987,4.419,6.422,7.854,10.841,10.841
			C153.312,178.186,149.877,181.621,146.89,186.041z"/>
	</g>
</g>
<g>
	<g>
		<rect x="327.847" y="471.207" width="26.149" height="15.689"/>
	</g>
</g>
<g>
	<g>
		<path d="M419.024,145.498l-14.567,5.829c3.504,8.756,6.096,17.909,7.703,27.203l15.459-2.672
			C425.826,165.484,422.934,155.269,419.024,145.498z"/>
	</g>
</g>
<g>
	<g>
		<path d="M354.762,71.384c-31.731-18.321-68.962-24.401-104.836-17.118l3.121,15.376c32.117-6.52,65.455-1.075,93.87,15.33
			c21.16,12.217,38.565,29.909,50.331,51.164l13.726-7.599C397.828,104.788,378.39,85.025,354.762,71.384z"/>
	</g>
</g>
</svg>