<?xml version="1.0" encoding="iso-8859-1"?>
<!-- Uploaded to: SVG Repo, www.svgrepo.com, Generator: SVG Repo Mixer Tools -->
<svg fill="#000000" height="800px" width="800px" version="1.1" id="Layer_1" xmlns="http://www.w3.org/2000/svg" xmlns:xlink="http://www.w3.org/1999/xlink" 
	 viewBox="0 0 512 512" xml:space="preserve">
<g>
	<g>
		<path d="M376.511,270.285c-1.186-3.439-4.42-5.751-8.064-5.751c-49.28,0-85.999,66.697-105.412,136.346
			c2.219-39.501,7.603-67.797,12.049-90.965c2.722-14.217,5.112-26.684,6.093-38.682c93.269-23.023,109.713-104.38,108.877-116.224
			c-0.162-2.261-1.212-4.361-2.918-5.845c-1.707-1.476-3.934-2.21-6.195-2.065c-44.561,3.174-90.735,23.424-108.655,68.83
			c-3.789-8.969-8.917-18.586-15.71-29.21C276.33,65.366,182.966,6.272,164.748,0.41c-3.174-1.024-6.673-0.094-8.926,2.389
			c-8.004,8.789-17.758,49.374-7.074,92.373c8.192,32.973,31.104,76.851,93.175,100.284c16.742,26.044,22.511,44.109,22.699,63.352
			c-0.009,1.886-0.145,3.669-0.077,5.615c-0.529,12.433-3.046,25.719-6.221,42.274c-4.267,22.221-9.387,49.015-11.878,85.538
			c-19.977-66.423-55.663-127.701-102.895-127.701c-3.635,0-6.878,2.313-8.064,5.751c-24.96,72.32-20.275,140.459,12.843,186.923
			C173.144,492.032,212.389,512,255.986,512h0.009h0.009h0.017c0.205,0,0.401-0.008,0.606-0.026c0.017,0,0.034-0.008,0.051-0.008
			c43.332-0.213,82.304-20.113,106.991-54.758C396.795,410.744,401.471,342.605,376.511,270.285z M319.491,204.945
			c3.294-3.371,8.704-3.413,12.066-0.128c3.371,3.302,3.422,8.704,0.128,12.066l-50.338,51.388
			c0.495-7.876,0.307-15.616-0.828-23.543L319.491,204.945z M242.273,159.198l-25.566-49.809c-2.15-4.19-7.296-5.862-11.486-3.695
			c-4.19,2.15-5.854,7.296-3.695,11.486l27.674,53.922c-31.787-16.64-52.813-41.702-62.481-74.846
			c-9.506-32.563-4.855-63.3-0.785-76.169C185.902,31.727,245.191,73.814,242.273,159.198z"/>
	</g>
</g>
</svg>