<?xml version="1.0" encoding="iso-8859-1"?>
<!-- Uploaded to: SVG Repo, www.svgrepo.com, Generator: SVG Repo Mixer Tools -->
<svg fill="#000000" version="1.1" id="Layer_1" xmlns="http://www.w3.org/2000/svg" xmlns:xlink="http://www.w3.org/1999/xlink" 
	 viewBox="0 0 511.999 511.999" xml:space="preserve">
<g>
	<g>
		<path d="M149.334,350.433l-15.669,1.004c0.572,8.904,2.011,17.773,4.278,26.364l15.182-4.009
			C151.115,366.183,149.839,358.324,149.334,350.433z"/>
	</g>
</g>
<g>
	<g>
		<path d="M330.009,180.634l-5.322,14.772c61.385,22.114,102.629,80.731,102.629,145.857c0,85.486-69.734,155.034-155.447,155.034
			s-155.447-69.548-155.447-155.034c0-7.525,0.55-15.075,1.627-22.479c8.048-20.151,13.875-25.912,34.194-33.987v-14.591
			c-6.033-2.397-10.781-4.592-14.696-7.019c18.392-31.448,47.108-55.391,81.504-67.782l-5.322-14.772
			c-36.702,13.223-67.528,38.391-87.826,71.446c-2.825-4.19-5.28-9.377-7.994-16.207h-14.591
			c-8.122,20.436-13.897,26.213-34.335,34.335v14.591c19.696,7.827,25.775,13.48,33.46,32.175
			c-1.142,8.008-1.723,16.162-1.723,24.291c0,94.144,76.777,170.736,171.149,170.736s171.149-76.592,171.149-170.736
			C443.017,269.539,397.603,204.987,330.009,180.634z M90.311,277.503c9.024-5.229,15.072-11.277,20.301-20.301
			c5.229,9.024,11.276,15.072,20.3,20.301c-9.024,5.229-15.072,11.276-20.3,20.3C105.382,288.779,99.334,282.731,90.311,277.503z"/>
	</g>
</g>
<g>
	<g>
		<rect x="241.514" y="343.345" width="26.17" height="15.702"/>
	</g>
</g>
<g>
	<g>
		<path d="M278.149,343.346v15.702h115.415c-3.729,27.462-16.871,52.924-37.545,72.427c-22.971,21.669-52.856,33.604-84.151,33.604
			c-49.758,0-94.275-29.658-113.414-75.556l-14.493,6.043c21.586,51.765,71.792,85.214,127.907,85.214
			c35.316,0,69.028-13.453,94.926-37.883c25.655-24.202,41.025-56.587,43.278-91.19l0.544-8.361H278.149z"/>
	</g>
</g>
<g>
	<g>
		<path d="M326.584,47.105L336.501,0H206.19l9.917,47.105h-19.606v68.041h32.45v147.597h15.701V115.146h53.386v147.597h15.702
			V115.146h32.45V47.105H326.584z M317.149,15.702l-6.612,31.404h-78.385l-6.611-31.404H317.149z M330.488,72.752h-43.965v15.702
			h43.965v10.991H212.201V62.807h118.287V72.752z"/>
	</g>
</g>
<g>
	<g>
		<rect x="249.888" y="72.752" width="26.17" height="15.702"/>
	</g>
</g>
<g>
	<g>
		<path d="M144.6,157.992h-14.591c-5.709,14.366-9.501,18.158-23.867,23.867v14.591c14.366,5.708,18.158,9.501,23.867,23.867H144.6
			c5.709-14.366,9.501-18.159,23.867-23.867v-14.591C154.101,176.15,150.308,172.358,144.6,157.992z M137.304,200.004
			c-2.991-4.423-6.427-7.86-10.85-10.85c4.423-2.99,7.86-6.427,10.85-10.85c2.99,4.423,6.427,7.86,10.85,10.85
			C143.731,192.144,140.294,195.581,137.304,200.004z"/>
	</g>
</g>
<g>
	<g>
		<path d="M197.567,219.752h-14.591c-5.708,14.366-9.501,18.158-23.867,23.867v14.591c14.366,5.708,18.158,9.501,23.867,23.867
			h14.591c5.709-14.366,9.501-18.159,23.867-23.867v-14.591C207.068,237.91,203.277,234.119,197.567,219.752z M190.271,261.764
			c-2.99-4.423-6.427-7.86-10.85-10.85c4.423-2.99,7.86-6.427,10.85-10.85c2.99,4.423,6.427,7.86,10.85,10.85
			C196.699,253.904,193.261,257.341,190.271,261.764z"/>
	</g>
</g>
</svg>