<?xml version="1.0" encoding="iso-8859-1"?>
<!-- Uploaded to: SVG Repo, www.svgrepo.com, Generator: SVG Repo Mixer Tools -->
<svg fill="#000000" height="800px" width="800px" version="1.1" id="Layer_1" xmlns="http://www.w3.org/2000/svg" xmlns:xlink="http://www.w3.org/1999/xlink" 
	 viewBox="0 0 480 480" xml:space="preserve">
<g>
	<g>
		<g>
			<path d="M96,360c0-4.416-3.584-8-8-8H72c-4.416,0-8,3.584-8,8c0,4.416,3.584,8,8,8h16C92.416,368,96,364.416,96,360z"/>
			<path d="M64,392H48c-4.416,0-8,3.584-8,8c0,4.416,3.584,8,8,8h16c4.416,0,8-3.584,8-8C72,395.584,68.416,392,64,392z"/>
			<path d="M104,424H88c-4.416,0-8,3.584-8,8c0,4.416,3.584,8,8,8h16c4.416,0,8-3.584,8-8C112,427.584,108.416,424,104,424z"/>
			<path d="M472,272h-32c-4.416,0-8,3.584-8,8v24h-16v-24c0-4.416-3.584-8-8-8h-32c-4.416,0-8,3.584-8,8v24h-16v-24
				c0-4.416-3.584-8-8-8h-16.936l-6-48H336c3.912,0,7.248-2.832,7.888-6.68l16-96c0.384-2.32-0.264-4.688-1.784-6.488
				c-1.52-1.8-3.752-2.832-6.104-2.832h-32c-4.416,0-8,3.584-8,8v24h-16v-24c0-4.416-3.584-8-8-8h-32c-4.416,0-8,3.584-8,8v24h-16
				v-24c0-4.416-3.584-8-8-8h-8V80h24h32h16c13.232,0,24-10.768,24-24V8c0-4.416-3.584-8-8-8h-32h-32h-16c-13.232,0-24,10.768-24,24
				v48v40h-8c-4.416,0-8,3.584-8,8v24h-16v-24c0-4.416-3.584-8-8-8h-32c-2.352,0-4.584,1.032-6.104,2.832
				c-1.52,1.8-2.168,4.168-1.784,6.488l16,96c0.64,3.848,3.976,6.68,7.888,6.68h14.936l-6,48H136c-4.416,0-8,3.584-8,8v24h-16v-24
				c0-4.416-3.584-8-8-8H72c-4.416,0-8,3.584-8,8v24H48v-24c0-4.416-3.584-8-8-8H8c-4.416,0-8,3.584-8,8v192c0,4.416,3.584,8,8,8
				h128h64h80h64h128c4.416,0,8-3.584,8-8V280C480,275.584,476.416,272,472,272z M280,16h16v40c0,4.408-3.592,8-8,8h-8V16z M248,16
				h16v48h-16V16z M216,24c0-4.408,3.592-8,8-8h8v48h-16V24z M150.776,208l-13.336-80H152v24c0,4.416,3.584,8,8,8h32
				c4.416,0,8-3.584,8-8v-24h16v24c0,4.416,3.584,8,8,8h32c4.416,0,8-3.584,8-8v-24h16v24c0,4.416,3.584,8,8,8h32
				c4.416,0,8-3.584,8-8v-24h14.552l-13.336,80H312H168H150.776z M120,368h20.936l-12,96H16v-96h24c4.416,0,8-3.584,8-8
				c0-4.416-3.584-8-8-8H16v-64h16v24c0,4.416,3.584,8,8,8h32c4.416,0,8-3.584,8-8v-24h16v24c0,4.416,3.584,8,8,8h32
				c4.416,0,8-3.584,8-8v-24h6.936l-8,64H120c-4.416,0-8,3.584-8,8C112,364.416,115.584,368,120,368z M272,464h-64v-72
				c0-17.648,14.352-32,32-32s32,14.352,32,32V464z M288,464v-72c0-26.472-21.528-48-48-48s-48,21.528-48,48v72h-46.936l30-240
				h129.872l30,240H288z M464,352h-24c-4.416,0-8,3.584-8,8c0,4.416,3.584,8,8,8h24v96H351.064l-12-96H360c4.416,0,8-3.584,8-8
				c0-4.416-3.584-8-8-8h-22.936l-8-64H336v24c0,4.416,3.584,8,8,8h32c4.416,0,8-3.584,8-8v-24h16v24c0,4.416,3.584,8,8,8h32
				c4.416,0,8-3.584,8-8v-24h16V352z"/>
			<path d="M392,368h16c4.416,0,8-3.584,8-8c0-4.416-3.584-8-8-8h-16c-4.416,0-8,3.584-8,8C384,364.416,387.584,368,392,368z"/>
			<path d="M416,392c-4.416,0-8,3.584-8,8c0,4.416,3.584,8,8,8h16c4.416,0,8-3.584,8-8c0-4.416-3.584-8-8-8H416z"/>
			<path d="M392,424h-16c-4.416,0-8,3.584-8,8c0,4.416,3.584,8,8,8h16c4.416,0,8-3.584,8-8C400,427.584,396.416,424,392,424z"/>
			<path d="M248,256h-16c-4.416,0-8,3.584-8,8c0,4.416,3.584,8,8,8h16c4.416,0,8-3.584,8-8C256,259.584,252.416,256,248,256z"/>
			<path d="M208,288h-16c-4.416,0-8,3.584-8,8c0,4.416,3.584,8,8,8h16c4.416,0,8-3.584,8-8C216,291.584,212.416,288,208,288z"/>
			<path d="M288,288h-16c-4.416,0-8,3.584-8,8c0,4.416,3.584,8,8,8h16c4.416,0,8-3.584,8-8C296,291.584,292.416,288,288,288z"/>
			<path d="M8,32h32c4.416,0,8-3.584,8-8s-3.584-8-8-8H8c-4.416,0-8,3.584-8,8S3.584,32,8,32z"/>
			<path d="M72,32h16c4.416,0,8-3.584,8-8s-3.584-8-8-8H72c-4.416,0-8,3.584-8,8S67.584,32,72,32z"/>
			<path d="M392,88h32c4.416,0,8-3.584,8-8s-3.584-8-8-8h-32c-4.416,0-8,3.584-8,8S387.584,88,392,88z"/>
			<path d="M456,88h16c4.416,0,8-3.584,8-8s-3.584-8-8-8h-16c-4.416,0-8,3.584-8,8S451.584,88,456,88z"/>
		</g>
	</g>
</g>
</svg>