<?xml version="1.0" encoding="iso-8859-1"?>
<!-- Uploaded to: SVG Repo, www.svgrepo.com, Generator: SVG Repo Mixer Tools -->
<!DOCTYPE svg PUBLIC "-//W3C//DTD SVG 1.1//EN" "http://www.w3.org/Graphics/SVG/1.1/DTD/svg11.dtd">
<svg fill="#000000" height="800px" width="800px" version="1.1" id="Capa_1" xmlns="http://www.w3.org/2000/svg" xmlns:xlink="http://www.w3.org/1999/xlink" 
	 viewBox="0 0 273.592 273.592" xml:space="preserve">
<g>
	<path d="M249.972,76.738c-30.487-21.276-70.711,2.397-69.543,38.545c0.011,0.351,0.217,0.53,0.342,0.786
		c-13.168-14.409-32.744-23.738-52.046-26.611c-14.466-2.153-32.005-2.04-47.471,2.492c-5.412-26.695-36.371-56.182-64.003-39.453
		c-25.034,15.157-21.124,51.324,0.816,67.067c2.829,2.652,6.329,4.6,10.345,5.793c2.476,0.735,4.707-1.686,4.088-4.089
		c-1.333-5.181-2.917-10.847-1.713-16.229c0.662-2.954,2.142-4.913,3.959-6.723c2.254-0.441,4.446,0.181,5.541,2.929
		c1.097,2.755,6.003,3.739,6.629,0c0.812-4.852,5.281-20.242,12.561-11.175c2.478,3.085,2.288,6.971,2.949,10.684
		c-7.107,4.977-12.843,11.648-16.277,20.421c-11.857,30.298,8.275,66.707,39.593,72.78c-8.143,6.637-7.922,20.918,3.146,24.97
		c5.209,1.907,9.933-0.055,13.325-3.68c0.538,4.876,2.853,9.102,8.648,10.429c7.414,1.698,11.284-3.962,13.097-10.184
		c4.103,5.387,9.969,9.465,16.908,6.016c6.847-3.403,6.544-11.33,4.797-17.918c26.259,3.806,49.992-18.719,51.056-45.287
		c0.534-13.328-3.474-25.062-10.291-34.969c1.228-0.752,2.065-1.753,3.365-2.85c3.457-2.918,7.82-4.534,12.345-4.07
		c4.27,0.439,8.18,2.66,9.803,6.784c1.084,2.754,0.418,5.346,0.786,8.092c-0.018,0.035-0.047,0.058-0.064,0.093
		c-0.936,1.964,1.675,4.485,3.263,2.517c3.239-4.011,9.845-4.916,13.393-0.567c1.779,2.182,2.212,5.266,1.728,7.969
		c-0.586,3.268-2.835,5.095-4.108,7.924c-0.834,1.852,0.608,4.912,3.031,3.944c1.92-0.767,3.383-2.132,4.526-3.771
		c0.107-0.094,0.181-0.146,0.303-0.248c2.077-1.749,3.878-3.209,6.673-3.587c6.086-0.823,9.71,4.118,10.391,9.574
		c0.012,0.096,0.057,0.16,0.075,0.251c-0.951,2.369,1.47,5.246,4.117,3.711C285.642,141.927,273.801,93.368,249.972,76.738z
		 M142.177,197.862c-0.376-0.019-0.706,0.048-0.999,0.168c-1.444,0.278-2.644,1.486-2.003,3.265c1.31,3.637,3.263,8.564,1.3,12.246
		c-0.212,2.486-1.7,3.263-4.466,2.331c-2.707,1.025-4.887,0.355-6.542-2.01c-2.009-2.086-3.318-4.977-4.564-7.54
		c-1.283-2.638-5.1-1.168-5.209,1.411c-0.185,4.383-2.054,18.264-10.971,10.641c-2.467-2.109-2.891-5.658-2.686-9.156
		c1.24-3.056,1.756-6.384,1.292-9.41c-0.311-2.028-3.62-2.419-4.468-0.584c-2.288,4.945-2.298,14.448-9.77,14.54
		c-4.301,0.053-7.442-3.888-7.629-7.976c-0.196-4.349,2.339-8.087,4.951-11.314c0.491-0.608,0.446-1.291,0.156-1.818
		c0.231-0.961-0.154-2.021-1.473-2.395c-31.653-8.977-51.375-46.094-29.722-74.233c14.834-19.277,36.923-22.778,60.444-21.047
		c23.926,1.761,48.889,11.84,61.986,33.011C201.905,160.48,181.515,199.88,142.177,197.862z"/>
	<path d="M125.916,188.106c-2.102-2.711-3.609-5.124-4.231-8.547c-0.476-2.615-3.968-3.133-5.673-1.497
		c-3.022,2.9-5.28,6.321-6.76,10.23c-1.092,2.886,3.477,4.721,4.936,2.081c0.752-1.36,1.579-2.606,2.523-3.751
		c1.028,2.409,2.458,4.649,4.435,6.254C124.492,195.593,129.295,190.824,125.916,188.106z"/>
	<path d="M96.33,154.2c-2.273-0.031-4.452,0.755-6.556,1.738c-0.729-1.527-1.518-3.023-2.226-4.562
		c-1.353-2.944-6.039-0.849-5.169,2.179c0.514,1.79,1.111,3.55,1.764,5.29c-3.141,1.663-6.187,3.477-9.001,5.659
		c-2.538,1.968,0.69,5.544,3.273,4.241c2.702-1.362,5.37-2.771,8.099-4.066c1.179,2.902,2.188,6.018,5.403,6.975
		c1.432,0.426,3.124-0.511,3.479-1.976c0.734-3.029-0.995-5.174-2.508-7.615c1.953-0.704,3.859-1.477,5.532-2.817
		C100.519,157.568,98.685,154.233,96.33,154.2z"/>
	<path d="M165.376,163.888c-2.251,1.352-4.208,3.242-6.132,5.116c-0.876-1.286-1.718-2.595-2.658-3.831
		c-2.202-2.895-6.667-0.487-4.967,2.904c0.907,1.812,1.953,3.556,2.966,5.317c-1.738,1.613-3.435,3.266-4.827,5.189
		c-1.476,2.038,1.317,4.263,3.236,3.236c1.614-0.864,3.09-1.965,4.524-3.127c1.104,2.037,2.207,3.94,4.174,5.37
		c2.46,1.789,5.044-1.156,4.625-3.555c-0.404-2.309-1.939-4.307-3.373-6.237c2.205-1.704,4.482-3.435,6.17-5.537
		C171.171,166.168,168.601,161.95,165.376,163.888z"/>
</g>
</svg>