<?xml version="1.0" encoding="iso-8859-1"?>
<!-- Uploaded to: SVG Repo, www.svgrepo.com, Generator: SVG Repo Mixer Tools -->
<svg fill="#000000" height="800px" width="800px" version="1.1" id="Layer_1" xmlns="http://www.w3.org/2000/svg" xmlns:xlink="http://www.w3.org/1999/xlink" 
	 viewBox="0 0 512 512" xml:space="preserve">
<g transform="translate(1 1)">
	<g>
		<g>
			<path d="M438.467-1H127H89.453c-12.8,0-22.187,9.387-22.187,22.187V50.2h-8.533c-5.12,0-8.533,3.413-8.533,8.533
				s3.413,8.533,8.533,8.533h8.533v375.467h-8.533c-5.12,0-8.533,3.413-8.533,8.533c0,5.12,3.413,8.533,8.533,8.533h8.533v29.013
				c0,12.8,9.387,22.187,22.187,22.187H127h310.613c12.8,0,22.187-9.387,22.187-21.333V21.187C459.8,8.387,450.413-1,438.467-1z
				 M89.453,493.933c-3.413,0-5.12-1.707-5.12-4.267V459.8h8.533c5.12,0,8.533-3.413,8.533-8.533c0-5.12-3.413-8.533-8.533-8.533
				h-8.533V67.267h8.533c5.12,0,8.533-3.413,8.533-8.533S97.987,50.2,92.867,50.2h-8.533V21.187c0-3.413,1.707-5.12,5.12-5.12
				h29.013v477.867H89.453z M443.587,488.813c0,3.413-2.56,5.12-5.12,5.12H135.533V16.067h302.08c3.413,0,5.12,1.707,5.973,5.12
				V488.813z"/>
			<path d="M408.6,101.4c-28.16,0-51.2-23.04-51.2-51.2c0-5.12-3.413-8.533-8.533-8.533h-34.133h-51.2H229.4
				c-5.12,0-8.533,3.413-8.533,8.533c0,28.16-23.04,51.2-51.2,51.2c-5.12,0-8.533,3.413-8.533,8.533v290.133
				c0,5.12,3.413,8.533,8.533,8.533c28.16,0,51.2,23.04,51.2,51.2c0,5.12,3.413,8.533,8.533,8.533h34.133h51.2h34.133
				c5.12,0,8.533-3.413,8.533-8.533c0-28.16,23.04-51.2,51.2-51.2c5.12,0,8.533-3.413,8.533-8.533V109.933
				C417.133,104.813,413.72,101.4,408.6,101.4z M306.2,58.733V127h-34.133V58.733H306.2z M399.213,268.855
				c-6.782,54.857-53.334,97.078-110.08,97.078C227.693,365.933,178.2,316.44,178.2,255s49.493-110.933,110.933-110.933
				c56.746,0,103.298,42.221,110.08,97.078V268.855z M178.2,117.613c30.72-3.413,54.613-28.16,58.88-58.88H255v72.855
				c-32.756,9.003-60.208,30.654-76.8,59.407V117.613z M178.2,391.533v-72.528c16.592,28.753,44.044,50.404,76.8,59.407v72.855
				h-17.92C233.667,420.547,208.92,395.8,178.2,391.533z M272.067,451.267V383H306.2v68.267H272.067z M399.213,392.387
				c-30.72,3.413-54.613,28.16-58.88,58.88h-17.067v-72.855c32.203-8.852,59.276-29.93,75.947-57.962V392.387z M323.267,131.588
				V58.733h17.067c3.413,30.72,28.16,54.613,58.88,58.88v71.936C382.543,161.518,355.47,140.44,323.267,131.588z"/>
			<path d="M318.147,239.64c-7.68-5.12-11.947-10.24-12.8-17.067c-2.56-14.507,10.24-32.427,15.36-38.4
				c2.56-2.56,3.413-6.827,0.853-10.24s-6.827-5.12-10.24-3.413c-3.413,0.853-81.92,32.427-81.92,110.08
				c0,33.28,26.453,59.733,59.733,59.733c33.28,0,59.733-26.453,58.88-58.88C348.013,254.147,319,239.64,318.147,239.64z
				 M289.133,323.267c-23.893,0-42.667-18.773-42.667-42.667c0-39.253,24.747-64.853,45.227-79.36
				c-2.56,6.827-4.267,15.36-2.56,23.893c2.56,11.947,9.387,21.333,22.187,29.013c0,0,20.48,10.24,20.48,26.453
				C331.8,304.493,313.027,323.267,289.133,323.267z"/>
		</g>
	</g>
</g>
</svg>