<?xml version="1.0" encoding="iso-8859-1"?>
<!-- Uploaded to: SVG Repo, www.svgrepo.com, Generator: SVG Repo Mixer Tools -->
<svg fill="#000000" height="800px" width="800px" version="1.1" id="Layer_1" xmlns="http://www.w3.org/2000/svg" xmlns:xlink="http://www.w3.org/1999/xlink" 
	 viewBox="0 0 511.996 511.996" xml:space="preserve">
<g>
	<g>
		<g>
			<path d="M240.248,345.596c1.306,3.388,4.531,5.47,7.953,5.47c1.024-0.009,2.065-0.188,3.072-0.58
				c3.268-1.254,81.237-31.932,177.946-128.64c28.211-28.211,41.668-59.767,40.004-93.798
				c-3.422-69.521-68.676-123.836-71.45-126.114c-2.398-1.954-5.649-2.466-8.516-1.357c-2.876,1.126-4.924,3.712-5.35,6.767
				c-0.068,0.495-7.603,50.202-63.292,105.89c-1.195,1.195-2.005,2.705-2.338,4.361c-11.554,57.796-59.213,105.464-82.142,128.393
				l-60.339,60.339l-30.174-30.174c-3.337-3.337-8.73-3.337-12.066,0c-3.337,3.328-3.337,8.73,0,12.066l28.988,28.996
				c-29.56,21.231-62.328,52.702-76.595,85.257c-11.443-0.162-22.622,4.241-30.839,12.459c-16.631,16.64-16.631,43.708,0,60.339
				c8.32,8.32,19.243,12.476,30.174,12.476c10.931,0,21.854-4.156,30.174-12.476c8.218-8.209,12.638-19.345,12.467-30.797
				c27.972-12.023,55.313-36.855,85.035-76.86l17.143,17.152c8.363,8.354,12.962,19.072,12.962,30.165
				c0,11.102-4.599,21.82-12.962,30.174l-36.207,36.198c-8.892,8.892-19.302,13.602-30.097,13.628h-0.094
				c-10.812,0-21.231-4.71-30.148-13.628c-3.337-3.328-8.738-3.328-12.066,0c-3.337,3.328-3.337,8.738,0,12.066
				c12.006,12.023,26.999,18.628,42.223,18.628h0.128c15.189-0.034,30.148-6.647,42.121-18.628l36.207-36.198
				c11.588-11.58,17.963-26.581,17.963-42.24c0-15.65-6.374-30.652-17.963-42.232l-54.306-54.306l60.356-60.356
				c23.774-23.774,72.866-72.883,86.263-134.554c40.329-40.951,56.482-78.831,62.694-98.893
				c17.775,17.638,52.719,57.941,54.997,104.294c1.425,29.013-10.359,56.226-35.021,80.896
				c-93.909,93.901-171.247,124.484-172.023,124.783C240.735,336.261,238.559,341.202,240.248,345.596z M200.756,355.418
				c-30.404,41.361-57.489,65.553-84.847,75.469c-3.908,1.417-6.238,5.461-5.478,9.566c1.536,8.303-1.101,16.811-7.04,22.75
				c-9.975,9.975-26.214,9.984-36.207,0c-9.975-9.984-9.975-26.214,0-36.198c5.931-5.939,14.43-8.559,22.758-7.049
				c4.036,0.751,8.149-1.562,9.574-5.487c9.651-26.615,38.852-59.469,75.273-85.026L200.756,355.418z"/>
			<path d="M278.375,276.152c3.234-3.234,77.901-78.456,86.511-134.801c17.86-17.886,36.062-36.975,48.29-73.685
				c1.493-4.471-0.922-9.31-5.385-10.795c-4.523-1.51-9.31,0.922-10.795,5.393c-11.435,34.287-28.314,51.174-46.217,69.069
				c-1.365,1.374-2.236,3.166-2.449,5.094c-5.632,50.697-81.271,126.891-82.031,127.659c-3.328,3.328-3.328,8.738,0,12.066
				c1.673,1.664,3.857,2.5,6.033,2.5C274.518,278.652,276.703,277.816,278.375,276.152z"/>
		</g>
	</g>
</g>
</svg>