<?xml version="1.0" encoding="iso-8859-1"?>
<!-- Uploaded to: SVG Repo, www.svgrepo.com, Generator: SVG Repo Mixer Tools -->
<svg fill="#000000" height="800px" width="800px" version="1.1" id="Layer_1" xmlns="http://www.w3.org/2000/svg" xmlns:xlink="http://www.w3.org/1999/xlink" 
	 viewBox="0 0 512 512" xml:space="preserve">
<g transform="translate(1 1)">
	<g>
		<g>
			<path d="M451.267,323.375c0-14.507-11.093-25.6-25.6-25.6h-8.762c-0.396-7.611-1.318-15.089-2.733-22.398
				C510.996,230.344,511,74.057,511,67.375c0-4.267-2.56-6.827-6.827-8.533c-3.413-0.853-7.68,0.853-9.387,4.267
				c0,0.846-61.267,101.54-152.998,106.543c-18.192-11.452-38.886-19.382-61.188-22.784v-11.226c0-14.507-11.093-25.6-25.6-25.6
				c-14.507,0-25.6,11.093-25.6,25.6v10.451c-22.498,3.656-43.361,11.851-61.668,23.579C76.639,164.909,15.207,63.956,14.36,63.109
				c-1.707-3.413-5.973-5.12-9.387-4.267C1.56,60.549-1,63.962-1,67.375c0,6.682,0.004,162.969,96.829,208.002
				c-1.415,7.309-2.337,14.787-2.733,22.398h-8.763c-14.507,0-25.6,11.093-25.6,25.6s11.093,25.6,25.6,25.6v51.2
				c-14.507,0-25.6,11.093-25.6,25.6c0,14.507,11.093,25.6,25.6,25.6h341.333c14.507,0,25.6-11.093,25.6-25.6
				c0-14.507-11.093-25.6-25.6-25.6v-51.2C440.173,348.975,451.267,337.882,451.267,323.375z M361.667,184.282
				c61.44-11.093,106.667-57.173,129.707-87.04c-4.256,45.118-21.256,130.147-81.49,161.053
				c-7.782-25.081-21.513-47.598-39.617-65.828C367.494,189.639,364.63,186.903,361.667,184.282z M246.467,135.642
				c0-5.12,3.413-8.533,8.533-8.533s8.533,3.413,8.533,8.533v17.92v50.347c0,5.12-3.413,8.533-8.533,8.533s-8.533-3.413-8.533-8.533
				v-51.2V135.642z M17.773,97.242c23.893,29.867,69.12,75.947,129.707,87.04c-22.187,19.627-39.253,45.227-47.787,74.24
				C39.107,227.802,22.893,142.469,17.773,97.242z M113.786,272.355c0.152-0.33,0.294-0.671,0.414-1.032
				c2.371-9.72,5.733-19.109,9.988-28.042c0.162-0.336,0.323-0.673,0.488-1.007c0.135-0.277,0.273-0.553,0.409-0.829
				c20.123-40.25,58.23-69.861,104.315-77.642v40.107c0,14.507,11.093,25.6,25.6,25.6c14.507,0,25.6-11.093,25.6-25.6v-40.107
				c19.999,3.333,38.376,10.677,54.422,21.142c0.348,0.348,0.696,0.696,1.045,1.045c29.867,19.627,51.2,50.347,59.733,86.187
				c0.32,0.96,0.64,1.92,1.05,2.79c1.634,7.412,2.724,15.03,3.217,22.81H109.933C110.484,289.079,111.793,280.584,113.786,272.355z
				 M434.2,425.775c0,5.12-3.413,8.533-8.533,8.533H84.333c-5.12,0-8.533-3.413-8.533-8.533s3.413-8.533,8.533-8.533h341.333
				C430.787,417.242,434.2,420.655,434.2,425.775z M408.6,400.175H101.4v-51.2h307.2V400.175z M84.333,331.909
				c-5.12,0-8.533-3.413-8.533-8.533s3.413-8.533,8.533-8.533H101.4h307.2h17.067c5.12,0,8.533,3.413,8.533,8.533
				s-3.413,8.533-8.533,8.533H84.333z"/>
			<path d="M152.6,383.109h68.267c5.12,0,8.533-3.413,8.533-8.533s-3.413-8.533-8.533-8.533H152.6c-5.12,0-8.533,3.413-8.533,8.533
				S147.48,383.109,152.6,383.109z"/>
			<path d="M289.133,383.109H357.4c5.12,0,8.533-3.413,8.533-8.533s-3.413-8.533-8.533-8.533h-68.267
				c-5.12,0-8.533,3.413-8.533,8.533S284.013,383.109,289.133,383.109z"/>
			<path d="M255,383.109c5.12,0,8.533-3.413,8.533-8.533s-3.413-8.533-8.533-8.533s-8.533,3.413-8.533,8.533
				S249.88,383.109,255,383.109z"/>
			<path d="M391.533,383.109c5.12,0,8.533-3.413,8.533-8.533s-3.413-8.533-8.533-8.533c-5.12,0-8.533,3.413-8.533,8.533
				S386.413,383.109,391.533,383.109z"/>
			<path d="M118.467,383.109c5.12,0,8.533-3.413,8.533-8.533s-3.413-8.533-8.533-8.533s-8.533,3.413-8.533,8.533
				S113.347,383.109,118.467,383.109z"/>
			<path d="M220.867,238.042h-34.133c-5.12,0-8.533,3.413-8.533,8.533s3.413,8.533,8.533,8.533h34.133
				c5.12,0,8.533-3.413,8.533-8.533S225.987,238.042,220.867,238.042z"/>
			<path d="M152.6,238.042c-5.12,0-8.533,3.413-8.533,8.533s3.413,8.533,8.533,8.533c5.12,0,8.533-3.413,8.533-8.533
				S157.72,238.042,152.6,238.042z"/>
			<path d="M331.8,255.109h-34.133c-5.12,0-8.533,3.413-8.533,8.533s3.413,8.533,8.533,8.533H331.8c5.12,0,8.533-3.413,8.533-8.533
				S336.92,255.109,331.8,255.109z"/>
			<path d="M365.933,255.109c-5.12,0-8.533,3.413-8.533,8.533s3.413,8.533,8.533,8.533s8.533-3.413,8.533-8.533
				S371.053,255.109,365.933,255.109z"/>
		</g>
	</g>
</g>
</svg>